<svg width="75" height="76" viewBox="0 0 75 76" fill="none" xmlns="http://www.w3.org/2000/svg">
<path fill-rule="evenodd" clip-rule="evenodd" d="M7.86581 1.58292C4.38844 1.58292 1.57002 4.42448 1.57002 7.93042V67.6856C1.57002 71.1915 4.38844 74.0331 7.86581 74.0331H28.576V44.3803H20.2816V31.299H21.0666V32.0905C21.0666 31.299 21.0665 31.299 21.0666 31.299H28.5796C28.6971 18.6601 31.6486 12.4593 36.4778 9.55969C38.9067 8.10129 41.7219 7.53882 44.675 7.32877C46.778 7.17918 49.0125 7.2066 51.2614 7.2342C52.1522 7.24513 53.0453 7.25609 53.9334 7.25609H54.7184V8.04755H53.9334C54.7184 8.04755 54.7184 8.04749 54.7184 8.04755V20.4609L53.7682 20.2547C52.296 19.9352 50.4527 19.8939 48.7285 20.1127C46.9836 20.3341 45.4839 20.8063 44.6291 21.4192C44.1492 21.7633 43.822 22.0487 43.5692 22.3947C43.3203 22.7355 43.1114 23.1803 42.9447 23.8792C42.6219 25.2323 42.488 27.3849 42.44 31.2325H53.9333C53.9334 31.2325 53.9334 31.2325 53.9334 32.024L53.9333 31.2325H54.7184V44.1444H42.3545V74.0331H67.1342C70.6116 74.0331 73.43 71.1915 73.43 67.6856V7.93042C73.43 4.42448 70.6116 1.58292 67.1342 1.58292H7.86581ZM53.1484 32.8155H40.8542L40.8615 32.0168C40.9005 27.707 41.024 25.1616 41.4182 23.509C41.6208 22.6596 41.9027 22.0069 42.305 21.4561C42.7036 20.9105 43.188 20.5101 43.7192 20.1292C44.8866 19.2922 46.691 18.7758 48.5324 18.5422C50.0549 18.349 51.6864 18.3385 53.1484 18.5402V8.83658C52.4828 8.83266 51.8246 8.82457 51.174 8.81658C48.9524 8.78927 46.8198 8.76306 44.7855 8.90776C41.9393 9.11021 39.4061 9.64381 37.2811 10.9197C33.1023 13.4288 30.146 19.0518 30.146 32.0905V32.8819H21.8516V42.7973H30.146V75.616H7.86581C3.52134 75.616 0 72.0657 0 67.6856V7.93042C0 3.55026 3.52134 0 7.86581 0H67.1342C71.4787 0 75 3.55026 75 7.93042V67.6856C75 72.0657 71.4787 75.616 67.1342 75.616H40.7845V42.5615H53.1484V32.8155Z" fill="#0BBED5"/>
</svg>
