<svg width="76" height="76" viewBox="0 0 76 76" fill="none" xmlns="http://www.w3.org/2000/svg">
<path d="M70.7174 0H5.28262C2.37033 0 0 2.44383 0 5.44644V70.1695C0 73.1738 2.37033 75.616 5.28262 75.616H70.7174C73.6312 75.616 76 73.1721 76 70.1695V5.44644C76.0016 2.44383 73.6312 0 70.7174 0ZM67.3254 1.60567L37.9969 29.3613L8.31484 1.60567H67.3254ZM5.28262 1.60567H5.9959L38.0031 31.5354L69.6272 1.60567H70.7174C72.7716 1.60567 74.4426 3.32856 74.4426 5.44644V8.82318L37.9969 43.5427L1.55738 9.29203V5.44644C1.55738 3.32856 3.22844 1.60567 5.28262 1.60567ZM37.4752 45.2254L38.0031 45.7216L64.7635 20.2299V74.0119H10.7677V20.1223L37.4752 45.2254ZM1.55738 70.1695V11.4661L9.21033 18.6595V74.0119H5.28262C3.22844 74.0119 1.55738 72.289 1.55738 70.1695ZM70.7174 74.0119H66.3209V18.7462L74.4426 11.0101V70.1711C74.4442 72.289 72.7716 74.0119 70.7174 74.0119Z" fill="#0BBED5"/>
</svg>
