<svg width="77" height="76" viewBox="0 0 77 76" fill="none" xmlns="http://www.w3.org/2000/svg">
<path fill-rule="evenodd" clip-rule="evenodd" d="M16.7658 1.59463C8.74084 1.59463 2.23691 8.15197 2.23691 16.2429V59.7571C2.23691 67.8465 8.74089 74.4054 16.7658 74.4054H59.9256C67.949 74.4054 74.4545 67.8464 74.4545 59.7571V16.2429C74.4545 8.15202 67.9491 1.59463 59.9256 1.59463H16.7658ZM0.655273 16.2429C0.655273 7.27128 7.86732 0 16.7658 0H59.9256C68.8225 0 76.0362 7.27123 76.0362 16.2429V59.7571C76.0362 68.7271 68.8225 76 59.9256 76H16.7658C7.86727 76 0.655273 68.7271 0.655273 59.7571V16.2429Z" fill="#0BBED5"/>
<path fill-rule="evenodd" clip-rule="evenodd" d="M25.2784 13.9418C19.3174 13.9418 14.4837 18.8137 14.4837 24.8251V51.1748C14.4837 57.1848 19.3159 62.0581 25.2784 62.0581H51.4134C57.3744 62.0581 62.2081 57.1847 62.2081 51.1748V24.8251C62.2081 18.8151 57.3759 13.9418 51.4134 13.9418H25.2784ZM12.9021 24.8251C12.9021 17.9329 18.444 12.3472 25.2784 12.3472H51.4134C58.2496 12.3472 63.7897 17.9346 63.7897 24.8251V51.1748C63.7897 58.0654 58.2479 63.6528 51.4134 63.6528H25.2784C18.4423 63.6528 12.9021 58.0653 12.9021 51.1748V24.8251Z" fill="#0BBED5"/>
<path fill-rule="evenodd" clip-rule="evenodd" d="M38.3458 27.5971C32.647 27.5971 28.0272 32.2548 28.0272 38.0004C28.0272 43.746 32.647 48.4038 38.3458 48.4038C44.0446 48.4038 48.6644 43.746 48.6644 38.0004C48.6644 32.2548 44.0446 27.5971 38.3458 27.5971ZM26.4456 38.0004C26.4456 31.3741 31.7735 26.0024 38.3458 26.0024C44.9181 26.0024 50.2461 31.3741 50.2461 38.0004C50.2461 44.6267 44.9181 49.9984 38.3458 49.9984C31.7735 49.9984 26.4456 44.6267 26.4456 38.0004Z" fill="#0BBED5"/>
<path d="M52.0379 26.1629C53.6836 26.1629 55.0177 24.8178 55.0177 23.1586C55.0177 21.4994 53.6836 20.1543 52.0379 20.1543C50.3922 20.1543 49.0581 21.4994 49.0581 23.1586C49.0581 24.8178 50.3922 26.1629 52.0379 26.1629Z" fill="#0BBED5"/>
</svg>
