<svg width="76" height="76" viewBox="0 0 76 76" fill="none" xmlns="http://www.w3.org/2000/svg">
<path fill-rule="evenodd" clip-rule="evenodd" d="M36.0386 2.34962C17.0056 2.34962 1.57642 17.9056 1.57642 37.0948C1.57642 56.284 17.0056 71.84 36.0386 71.84C55.0715 71.84 70.5007 56.284 70.5007 37.0948C70.5007 17.9056 55.0715 2.34962 36.0386 2.34962ZM0 37.0948C0 17.0278 16.135 0.760254 36.0386 0.760254C55.9421 0.760254 72.0771 17.0278 72.0771 37.0948C72.0771 57.1618 55.9421 73.4294 36.0386 73.4294C16.135 73.4294 0 57.1618 0 37.0948Z" fill="#0BBED5"/>
<path fill-rule="evenodd" clip-rule="evenodd" d="M36.8267 1.55469V20.8941H35.2502V1.55469H36.8267Z" fill="#0BBED5"/>
<path fill-rule="evenodd" clip-rule="evenodd" d="M36.8267 37.0947V72.633H35.2502V37.0947H36.8267Z" fill="#0BBED5"/>
<path fill-rule="evenodd" clip-rule="evenodd" d="M71.2872 37.8892H0.788086V36.2998H71.2872V37.8892Z" fill="#0BBED5"/>
<path fill-rule="evenodd" clip-rule="evenodd" d="M37.3905 21.6811C27.1192 21.8318 16.2833 19.9422 8.01855 15.7812L8.72284 14.3592C16.7 18.3755 27.2687 20.24 37.3676 20.0919C47.4818 19.9435 56.9768 17.7791 62.8503 13.8804L63.7172 15.2079C57.487 19.3434 47.6464 21.5307 37.3905 21.6811Z" fill="#0BBED5"/>
<path fill-rule="evenodd" clip-rule="evenodd" d="M37.4718 53.9423C27.3729 53.7941 16.8042 55.6587 8.82709 59.6749L8.1228 58.253C16.3875 54.0919 27.2235 52.2024 37.4947 52.3531C47.7506 52.5035 57.5912 54.6908 63.8214 58.8263L62.9546 60.1538C57.081 56.255 47.586 54.0906 37.4718 53.9423Z" fill="#0BBED5"/>
<path fill-rule="evenodd" clip-rule="evenodd" d="M36.3262 2.29425C29.7404 4.8963 25.3224 11.4628 22.9861 19.808L21.469 19.3762C23.8715 10.7946 28.5148 3.67348 35.751 0.814453L36.3262 2.29425Z" fill="#0BBED5"/>
<path fill-rule="evenodd" clip-rule="evenodd" d="M25.4024 58.2151C28.0271 64.4597 31.754 69.3958 36.4134 71.9334L35.6641 73.3318C30.5734 70.5593 26.653 65.2639 23.951 58.8352C21.2441 52.3953 19.725 44.739 19.4883 37.1176L21.0639 37.0679C21.2955 44.5233 22.7825 51.9818 25.4024 58.2151Z" fill="#0BBED5"/>
<path fill-rule="evenodd" clip-rule="evenodd" d="M36.8213 0.814453C44.0361 3.66516 48.6718 10.7518 51.0808 19.2969L49.5645 19.7315C47.2222 11.423 42.8124 4.88871 36.2461 2.29424L36.8213 0.814453Z" fill="#0BBED5"/>
<path fill-rule="evenodd" clip-rule="evenodd" d="M48.6231 58.8352C45.921 65.2639 42.0006 70.5593 36.9099 73.3318L36.1606 71.9334C40.82 69.3958 44.5469 64.4597 47.1716 58.2151C49.7915 51.9818 51.2786 44.5233 51.5101 37.0679L53.0857 37.1176C52.849 44.739 51.3299 52.3953 48.6231 58.8352Z" fill="#0BBED5"/>
<path d="M56.2499 73.6529L47.4629 47.0723L73.3383 56.3144L65.0384 60.3626L73.827 69.4188L69.4319 74.0454L60.1562 64.9892L56.2499 73.6529Z" fill="#0BBED5"/>
<path fill-rule="evenodd" clip-rule="evenodd" d="M46.2048 45.7798L75.381 56.2009L66.3684 60.5967L74.924 69.4128L69.453 75.1722L60.4111 66.3442L56.1368 75.824L46.2048 45.7798ZM48.721 48.3647L56.363 71.4817L59.9014 63.6341L69.4109 72.9186L72.73 69.4246L63.7085 60.1284L71.2957 56.4279L48.721 48.3647Z" fill="white"/>
<path fill-rule="evenodd" clip-rule="evenodd" d="M19.5574 24.0454L21.0288 24.0454L23.6211 30.8412L25.6409 24.1009L27.1499 24.5605L24.4653 33.5198L22.9751 33.5752L20.2931 26.5445L17.6111 33.5752L16.1232 33.5274L13.3408 24.5681L14.8452 24.0932L16.9517 30.8761L19.5574 24.0454Z" fill="#0BBED5"/>
<path fill-rule="evenodd" clip-rule="evenodd" d="M36.0858 26.5445L33.4038 33.5752L31.9159 33.5274L29.1335 24.5681L30.6379 24.0932L32.7444 30.8761L35.3501 24.0454L36.8215 24.0454L39.4139 30.8412L41.4336 24.1009L42.9427 24.5605L40.258 33.5198L38.7678 33.5752L36.0858 26.5445Z" fill="#0BBED5"/>
<path fill-rule="evenodd" clip-rule="evenodd" d="M51.8783 26.5445L49.1963 33.5752L47.7084 33.5274L44.926 24.5681L46.4304 24.0932L48.5369 30.8761L51.1426 24.0454H52.614L55.2063 30.8412L57.2261 24.1009L58.7351 24.5605L56.0505 33.5198L54.5603 33.5752L51.8783 26.5445Z" fill="#0BBED5"/>
</svg>
