<svg width="76" height="76" viewBox="0 0 76 76" fill="none" xmlns="http://www.w3.org/2000/svg">
<path fill-rule="evenodd" clip-rule="evenodd" d="M6.43588 1.62898C4.11231 1.62898 2.22953 3.53349 2.22953 5.88387V70.1161C2.22953 72.4665 4.11231 74.371 6.43588 74.371H70.1833C72.5054 74.371 74.3896 72.4663 74.3896 70.1161V5.88387C74.3896 3.53349 72.5069 1.62898 70.1833 1.62898H6.43588ZM0.619141 5.88387C0.619141 2.63383 3.22292 0 6.43588 0H70.1833C73.3963 0 76 2.63383 76 5.88387V70.1161C76 73.3663 73.3945 76 70.1833 76H6.43588C3.22292 76 0.619141 73.3662 0.619141 70.1161V5.88387Z" fill="#0BBED5"/>
<path fill-rule="evenodd" clip-rule="evenodd" d="M30.3616 29.5679L46.2589 37.9989L30.3616 46.4318V29.5679ZM31.972 32.2612V43.7382L42.7911 37.9991L31.972 32.2612Z" fill="#0BBED5"/>
</svg>
