<svg width="120" height="120" viewBox="0 0 120 120" fill="none" xmlns="http://www.w3.org/2000/svg">
<path d="M104.374 15.9072C104.374 15.9072 104.193 33.2639 96.0711 45.9144C115.534 47.4641 112.195 64.2483 119.286 67.4375C119.286 67.4375 108.479 82.1856 96.8857 81.8217C97.1104 94.8279 87.1782 110.578 90.2963 119.287C90.2963 119.287 71.74 113.918 62.0525 100.037C48.1955 109.474 26.2843 104.412 26.2843 104.412C29.6192 102.073 21.9061 81.8912 31.1762 74.1349C14.9435 72.4217 0.717285 57.5714 0.717285 57.5714C11.1793 54.8238 21.6533 43.085 32.4604 39.5524C28.5637 18.3523 41.4937 7.72565 40.659 0.71347C40.659 0.71347 67.0568 2.19359 73.0443 23.6594C83.0166 20.3394 96.067 20.646 104.374 15.9072Z" fill="#CE414B"/>
<path fill-rule="evenodd" clip-rule="evenodd" d="M105.088 15.8983L104.374 15.8909C105.088 15.8983 105.088 15.8986 105.088 15.8989L105.088 15.8998L105.088 15.9028L105.088 15.9136L105.087 15.9537C105.086 15.9888 105.085 16.0401 105.084 16.107C105.08 16.2409 105.074 16.4374 105.064 16.6911C105.043 17.1984 105.003 17.9347 104.931 18.8566C104.785 20.7 104.506 23.2887 103.971 26.2764C102.903 32.2403 100.805 39.8461 96.6719 46.2836C93.7964 50.7636 89.9231 54.6982 84.7112 57.1046C79.4941 59.5133 72.9962 60.3627 64.9246 58.7703C64.538 58.694 64.2865 58.3188 64.3627 57.9322C64.439 57.5456 64.8142 57.294 65.2008 57.3703C73.0249 58.9139 79.2102 58.0727 84.113 55.809C89.0209 53.543 92.7042 49.8236 95.471 45.5127L95.4711 45.5127C99.4602 39.2996 101.514 31.9018 102.567 26.0248C103.092 23.0919 103.366 20.5508 103.508 18.7445C103.559 18.0985 103.593 17.5468 103.616 17.1053C99.5248 19.1487 94.5227 20.1656 89.4524 21.0185C88.4878 21.1808 87.5205 21.3372 86.5551 21.4933C81.9265 22.2417 77.3391 22.9834 73.2698 24.3365C72.8959 24.4609 72.492 24.2585 72.3676 23.8846C72.2433 23.5107 72.4456 23.1068 72.8195 22.9825C77.0088 21.5895 81.7354 20.826 86.3655 20.0781C87.3215 19.9236 88.2735 19.7698 89.2157 19.6113C94.7707 18.6768 99.9907 17.5782 104.02 15.2717C104.242 15.1446 104.515 15.1461 104.736 15.2755C104.956 15.405 105.091 15.6426 105.088 15.8983Z" fill="white"/>
<path fill-rule="evenodd" clip-rule="evenodd" d="M73.722 23.434C73.8465 23.8078 73.6444 24.2118 73.2705 24.3364C68.3991 25.9586 64.3937 28.4225 62.0453 32.7159C59.69 37.0218 58.9249 43.3071 60.8582 52.7383C60.9373 53.1243 60.6885 53.5014 60.3025 53.5806C59.9165 53.6597 59.5394 53.4109 59.4603 53.0249C57.4929 43.4271 58.2105 36.7531 60.7933 32.0311C63.383 27.2967 67.7708 24.6639 72.8196 22.9825C73.1935 22.858 73.5975 23.0601 73.722 23.434Z" fill="white"/>
<path fill-rule="evenodd" clip-rule="evenodd" d="M58.1345 59.8151C58.458 60.0402 58.5377 60.4849 58.3127 60.8083C54.2019 66.7163 49.699 70.4771 45.0534 72.6344C40.4069 74.792 35.6593 75.3261 31.0899 74.8444C30.698 74.8031 30.4139 74.4519 30.4552 74.0601C30.4965 73.6682 30.8476 73.384 31.2395 73.4253C35.5911 73.884 40.0734 73.3735 44.4524 71.3401C48.832 69.3064 53.1498 65.73 57.1413 59.9933C57.3664 59.6698 57.8111 59.5901 58.1345 59.8151Z" fill="white"/>
<path fill-rule="evenodd" clip-rule="evenodd" d="M45.1987 39.3646C49.5831 41.4062 53.9505 45.6137 58.3476 52.8124C58.553 53.1487 58.4469 53.5878 58.1107 53.7932C57.7744 53.9986 57.3353 53.8925 57.1299 53.5562C52.8107 46.4852 48.6283 42.5357 44.5964 40.6582C40.5888 38.7921 36.6404 38.9319 32.6789 40.2304L32.6783 40.2306C27.5494 41.9072 22.475 45.4867 17.3256 49.1191C17.1742 49.2258 17.0228 49.3327 16.8713 49.4395C12.006 52.8699 7.06091 56.3065 2.07552 57.9157C2.47524 58.2997 3.00985 58.8006 3.66549 59.3867C5.23696 60.7915 7.50066 62.6831 10.266 64.6271C15.8114 68.5255 23.3074 72.5875 31.2473 73.4254C31.6392 73.4668 31.9233 73.818 31.882 74.2099C31.8406 74.6017 31.4894 74.8859 31.0976 74.8445C22.8048 73.9693 15.0713 69.7495 9.44537 65.7945C6.62509 63.8118 4.3177 61.8837 2.71447 60.4506C1.91257 59.7337 1.28608 59.14 0.858887 58.7243C0.64527 58.5164 0.481427 58.353 0.370344 58.2408C0.3148 58.1848 0.272442 58.1415 0.243642 58.1119L0.210654 58.0779L0.201873 58.0688L0.199426 58.0663L0.19869 58.0655C0.198458 58.0653 0.19828 58.0651 0.713499 57.5715L0.19828 58.0651C0.0233734 57.8825 -0.0418414 57.621 0.0268539 57.3777C0.0955494 57.1343 0.287894 56.9455 0.532458 56.8814C5.62109 55.5465 10.7469 52.0116 16.049 48.2733C16.229 48.1464 16.4092 48.0192 16.5896 47.8919C21.6662 44.31 26.8968 40.6194 32.2344 38.8745M45.1987 39.3646C40.79 37.3117 36.4555 37.4908 32.2346 38.8744L45.1987 39.3646Z" fill="white"/>
<path fill-rule="evenodd" clip-rule="evenodd" d="M63.7255 60.8003C63.7533 60.4073 64.0945 60.1112 64.4875 60.139C77.289 61.0443 85.5201 63.6845 90.5851 67.5151C95.6964 71.3806 97.5067 76.3983 97.6 81.8095C97.7058 87.9344 95.6104 94.6319 93.6764 100.813C93.512 101.339 93.3489 101.86 93.1883 102.377C92.1549 105.706 91.2267 108.855 90.7465 111.706C90.2653 114.564 90.25 117.038 90.9689 119.046C91.0593 119.299 91.0006 119.58 90.8172 119.775C90.6337 119.971 90.3563 120.047 90.0989 119.972L90.2972 119.287C90.0989 119.972 90.0987 119.972 90.0983 119.972L90.0941 119.971L90.0825 119.967L90.0394 119.955C90.0019 119.943 89.9472 119.927 89.8759 119.905C89.7334 119.861 89.5249 119.795 89.2571 119.707C88.7216 119.53 87.9488 119.262 86.9925 118.898C85.0804 118.17 82.4312 117.053 79.476 115.499C73.5763 112.395 66.404 107.518 61.4684 100.445C55.2191 91.496 52.6199 79.1315 60.4541 62.6702C60.6235 62.3144 61.0492 62.1632 61.405 62.3326C61.7608 62.5019 61.9119 62.9276 61.7426 63.2834C54.1186 79.3029 56.6962 91.1191 62.6384 99.6286C67.3903 106.438 74.34 111.185 80.1403 114.236C83.0351 115.759 85.6304 116.852 87.5004 117.564C88.1906 117.827 88.7815 118.038 89.2516 118.199C88.821 116.164 88.9333 113.881 89.3394 111.469C89.8375 108.512 90.7937 105.278 91.8255 101.954C91.9824 101.449 92.1409 100.942 92.3 100.433C94.2502 94.193 96.2749 87.7153 96.1732 81.8341C96.0859 76.7699 94.4189 72.2036 89.7244 68.6532C84.9836 65.0678 77.0802 62.4601 64.3869 61.5624C63.9938 61.5346 63.6977 61.1934 63.7255 60.8003Z" fill="white"/>
<path fill-rule="evenodd" clip-rule="evenodd" d="M40.699 0.00112056L40.659 0.713486C40.699 0.00112057 40.6993 0.00114186 40.6998 0.00116901L40.7013 0.00125274L40.706 0.00152925L40.7226 0.00254186C40.7368 0.00343003 40.7574 0.00475638 40.784 0.00659184C40.8372 0.0102627 40.9149 0.0159706 41.0156 0.0242835C41.217 0.0409085 41.5105 0.0679592 41.8846 0.109986C42.6327 0.194023 43.7041 0.338033 45.0067 0.578532C47.6101 1.05917 51.1479 1.92707 54.8801 3.47791C62.3394 6.57748 70.6568 12.4446 73.7315 23.4678C73.8373 23.8473 73.6155 24.2408 73.2359 24.3467C72.8564 24.4526 72.4628 24.2307 72.357 23.8512C69.4442 13.4085 61.569 7.8026 54.3325 4.79564C50.7169 3.29322 47.281 2.44948 44.7477 1.98179C43.482 1.74812 42.4442 1.60879 41.7253 1.52803C41.6123 1.51534 41.5072 1.50409 41.4103 1.49416C41.3828 3.21879 40.7181 5.07067 39.8333 7.05028C39.3998 8.02006 38.8997 9.04833 38.374 10.1293C38.2654 10.3525 38.1558 10.5779 38.0454 10.8055C37.3979 12.1411 36.7194 13.5637 36.0655 15.0934C33.4577 21.1946 31.2388 29.0061 33.1462 39.428C33.2171 39.8156 32.9604 40.1874 32.5728 40.2583C32.1852 40.3292 31.8134 40.0725 31.7425 39.6849C29.7692 28.9026 32.075 20.7988 34.7534 14.5326C35.4211 12.9704 36.1117 11.5229 36.7614 10.1829C36.8738 9.95126 36.9847 9.72312 37.094 9.49834C37.6196 8.41773 38.1074 7.41469 38.5305 6.46797C39.5642 4.15543 40.1338 2.33767 39.9505 0.797822C39.9256 0.588405 39.9946 0.378688 40.139 0.224978C40.2834 0.0712677 40.4884 -0.0106858 40.699 0.00112056Z" fill="white"/>
<path fill-rule="evenodd" clip-rule="evenodd" d="M95.3597 45.8578C95.391 45.465 95.7348 45.1719 96.1276 45.2032C101.101 45.5991 104.673 46.9742 107.332 48.9054C109.987 50.8342 111.679 53.2805 112.952 55.7325C113.587 56.9563 114.12 58.1882 114.614 59.3569C114.69 59.5363 114.764 59.7139 114.838 59.8896C115.25 60.8672 115.637 61.787 116.047 62.6367C117.021 64.6532 118.049 66.0984 119.579 66.7868C119.775 66.8751 119.921 67.0473 119.976 67.2555C120.031 67.4637 119.989 67.6855 119.862 67.8592L119.286 67.4375C119.862 67.8592 119.862 67.8594 119.862 67.8597L119.859 67.8631L119.852 67.8723L119.827 67.9063C119.805 67.9359 119.773 67.9789 119.73 68.0346C119.646 68.146 119.521 68.3078 119.359 68.5129C119.035 68.9229 118.561 69.5061 117.956 70.2037C116.746 71.5979 115.01 73.4547 112.904 75.3024C108.725 78.9682 102.946 82.7257 96.8632 82.5348C96.4694 82.5224 96.1601 82.1931 96.1725 81.7993C96.1848 81.4054 96.5141 81.0962 96.908 81.1085C102.419 81.2815 107.84 77.8469 111.963 74.2297C114.008 72.4358 115.698 70.6284 116.878 69.2687C117.449 68.6104 117.899 68.0583 118.21 67.6652C116.65 66.6719 115.627 65.0492 114.762 63.2573C114.334 62.3714 113.931 61.412 113.52 60.4357C113.447 60.2616 113.373 60.087 113.299 59.9122C112.808 58.748 112.292 57.5601 111.685 56.3897C110.473 54.0533 108.907 51.8136 106.493 50.0599C104.082 48.3085 100.773 47.0045 96.0143 46.6256C95.6215 46.5943 95.3284 46.2506 95.3597 45.8578Z" fill="white"/>
<path fill-rule="evenodd" clip-rule="evenodd" d="M31.7113 73.6767C31.9644 73.9787 31.9248 74.4287 31.6228 74.6818C29.4677 76.4878 28.2689 79.0375 27.6566 81.9605C27.0432 84.8885 27.03 88.1373 27.2052 91.2698C27.2926 92.8332 27.4261 94.3564 27.5524 95.7902L27.5575 95.848C27.6814 97.2547 27.7982 98.5815 27.8529 99.7538C27.9081 100.936 27.9029 102.006 27.7646 102.871C27.7062 103.236 27.619 103.599 27.4839 103.931C28.096 104.047 28.9567 104.197 30.0169 104.349C32.2661 104.673 35.4081 105.007 38.9768 105.05C46.1385 105.135 54.907 104.043 61.6552 99.4474C61.9809 99.2256 62.4248 99.3098 62.6466 99.6355C62.8684 99.9612 62.7841 100.405 62.4585 100.627C55.3497 105.468 46.2261 106.563 38.9598 106.477C35.3146 106.433 32.1088 106.092 29.8136 105.762C28.6655 105.596 27.7439 105.434 27.1077 105.312C26.7895 105.251 26.5426 105.2 26.3742 105.165C26.2901 105.147 26.2255 105.133 26.1815 105.123C26.1595 105.118 26.1427 105.114 26.1311 105.112L26.1176 105.108L26.1139 105.108L26.1127 105.107C26.1124 105.107 26.1121 105.107 26.2726 104.412L26.1121 105.107C25.8376 105.044 25.6261 104.825 25.5723 104.548C25.5184 104.272 25.6323 103.99 25.8629 103.828C26.0321 103.709 26.2363 103.391 26.3555 102.646C26.4699 101.93 26.4816 100.98 26.4275 99.8203C26.3742 98.6777 26.2595 97.3756 26.1343 95.9535L26.1309 95.9153C26.0049 94.484 25.8693 92.939 25.7804 91.3495C25.603 88.1762 25.6081 84.7798 26.2599 81.6679C26.9128 78.5511 28.2262 75.6664 30.7062 73.5881C31.0082 73.335 31.4582 73.3747 31.7113 73.6767Z" fill="white"/>
<path fill-rule="evenodd" clip-rule="evenodd" d="M61.3896 61.4157C60.8831 60.5835 60.3781 60.3272 59.8222 60.3902C59.4306 60.4345 59.0773 60.1531 59.0329 59.7615C58.9886 59.37 59.27 59.0166 59.6616 58.9723C60.9828 58.8226 61.9443 59.5824 62.6085 60.6737C63.2605 61.7448 63.7173 63.2604 64.0684 64.9882C64.6411 67.807 64.971 71.4092 65.3041 75.0463C65.3804 75.8801 65.4569 76.7157 65.5366 77.5441C65.9687 82.0384 66.492 86.3074 67.5405 89.1715C68.0667 90.6089 68.6856 91.5762 69.3868 92.0732C70.0278 92.5274 70.8349 92.6564 71.9824 92.1748C72.3458 92.0223 72.7639 92.1933 72.9164 92.5566C73.0689 92.9199 72.898 93.3381 72.5346 93.4906C71.0225 94.1252 69.6784 94.0288 68.5617 93.2374C67.5052 92.4886 66.7599 91.1899 66.2005 89.6621C65.078 86.596 64.5448 82.1387 64.1162 77.6807C64.0345 76.8315 63.9566 75.9816 63.8794 75.1388C63.5463 71.506 63.2255 68.0068 62.67 65.2723C62.3267 63.5832 61.9084 62.268 61.3896 61.4157Z" fill="white"/>
<path d="M72.7794 95.3799C74.22 95.3799 75.3878 94.19 75.3878 92.7223C75.3878 91.2545 74.22 90.0646 72.7794 90.0646C71.3388 90.0646 70.1709 91.2545 70.1709 92.7223C70.1709 94.19 71.3388 95.3799 72.7794 95.3799Z" fill="white"/>
<path fill-rule="evenodd" clip-rule="evenodd" d="M65.9548 62.2317C65.2789 61.5401 64.7323 61.4064 64.204 61.5959C63.8331 61.7289 63.4246 61.536 63.2916 61.1651C63.1586 60.7941 63.3515 60.3856 63.7224 60.2526C64.9759 59.8032 66.0836 60.3218 66.9753 61.2343C67.8493 62.1287 68.6311 63.5008 69.3565 65.1028C70.5404 67.7176 71.6615 71.1516 72.7932 74.6184C73.0522 75.412 73.3119 76.2073 73.573 76.9949C74.9911 81.2732 76.4476 85.3101 78.1037 87.8578C78.9348 89.1364 79.7509 89.9344 80.5417 90.2562C81.264 90.5501 82.0787 90.4916 83.0918 89.7569C83.4108 89.5256 83.857 89.5967 84.0883 89.9157C84.3196 90.2347 84.2486 90.6808 83.9296 90.9121C82.6 91.8763 81.2697 92.093 80.0038 91.5779C78.8064 91.0906 77.7912 89.9952 76.9073 88.6355C75.1334 85.9065 73.625 81.6871 72.2185 77.4439C71.9508 76.6364 71.6866 75.8274 71.4247 75.0252C70.2939 71.5625 69.2048 68.2273 68.0566 65.6914C67.3474 64.1252 66.6484 62.9414 65.9548 62.2317Z" fill="white"/>
<path d="M83.9967 92.7672C85.4373 92.7672 86.6051 91.5773 86.6051 90.1096C86.6051 88.6418 85.4373 87.4519 83.9967 87.4519C82.556 87.4519 81.3882 88.6418 81.3882 90.1096C81.3882 91.5773 82.556 92.7672 83.9967 92.7672Z" fill="white"/>
<path fill-rule="evenodd" clip-rule="evenodd" d="M65.5567 59.1939C64.7048 58.7595 64.1453 58.8071 63.7001 59.1605C63.3915 59.4055 62.9427 59.354 62.6977 59.0453C62.4527 58.7367 62.5043 58.2879 62.8129 58.0429C63.8575 57.2137 65.07 57.344 66.2049 57.9227C67.3146 58.4886 68.4852 59.5376 69.6731 60.8217C71.6121 62.9178 73.7471 65.811 75.902 68.7313C76.3952 69.3997 76.8895 70.0695 77.3827 70.7314C80.0625 74.3285 82.7024 77.6827 85.066 79.5605C86.2519 80.5027 87.2723 80.9934 88.1198 81.0422C88.8949 81.0868 89.6518 80.7677 90.3857 79.7391C90.6145 79.4183 91.0601 79.3438 91.3809 79.5726C91.7017 79.8015 91.7762 80.2471 91.5473 80.5678C90.5907 81.9086 89.4 82.5452 88.0378 82.4668C86.7481 82.3925 85.4415 81.6814 84.1783 80.6778C81.6435 78.664 78.8958 75.1509 76.2384 71.584C75.7325 70.905 75.2295 70.2235 74.7308 69.5478C72.5782 66.6312 70.5052 63.8226 68.6256 61.7907C67.4647 60.5357 66.4337 59.6412 65.5567 59.1939Z" fill="white"/>
<path d="M91.356 82.4391C92.7967 82.4391 93.9645 81.2492 93.9645 79.7814C93.9645 78.3136 92.7967 77.1237 91.356 77.1237C89.9154 77.1237 88.7476 78.3136 88.7476 79.7814C88.7476 81.2492 89.9154 82.4391 91.356 82.4391Z" fill="white"/>
</svg>
