<svg width="1513" height="361" viewBox="0 0 1513 361" fill="none" xmlns="http://www.w3.org/2000/svg">
<g clip-path="url(#clip0)">
<rect width="1513" height="361" fill="white"/>
<path d="M397.158 245.906C420.206 240.734 443.655 236.94 467.293 234.56C479.112 233.379 490.991 232.667 502.89 232.236C514.789 231.89 526.708 232.002 538.607 232.48C550.506 233.042 562.375 234.007 574.184 235.394C585.983 236.837 597.732 238.58 609.381 240.632L626.85 243.686C632.659 244.698 638.479 245.71 644.309 246.525C655.958 248.277 667.737 249.317 679.596 248.83C667.827 250.338 655.808 249.907 643.989 248.774C632.15 247.602 620.43 245.85 608.731 244.183C585.343 240.819 561.935 238.036 538.367 237.09C514.819 235.965 491.201 236.556 467.643 238.139C444.094 239.826 420.606 242.608 397.158 245.906Z" fill="#055661"/>
<path d="M643.959 247.631C649.089 246.656 654.028 245.035 658.918 243.33C663.797 241.615 668.597 239.694 673.357 237.699C678.116 235.712 682.836 233.633 687.506 231.478C692.175 229.323 696.825 227.111 701.414 224.806C701.614 224.703 701.844 224.703 702.034 224.778C705.374 226.062 708.004 228.254 710.594 230.297C713.163 232.368 715.723 234.41 718.443 236.238C721.153 238.074 724.023 239.704 727.002 241.128C729.982 242.552 733.092 243.752 736.252 244.792C742.591 246.862 749.191 248.268 755.85 249.242C762.52 250.226 769.269 250.779 776.028 251.069C782.788 251.378 789.577 251.332 796.357 251.182C803.126 251.004 809.926 250.638 816.715 250.245C830.284 249.411 843.843 248.287 857.402 247.097C870.961 245.916 884.53 244.632 898.139 243.649C911.748 242.637 925.397 241.849 939.096 241.643C952.794 241.493 966.573 241.84 980.252 243.817C987.082 244.81 993.881 246.188 1000.52 248.193C1007.15 250.198 1013.61 252.878 1019.55 256.429L1019.31 256.307L1020.12 256.625L1021.07 256.925C1021.7 257.122 1022.41 257.281 1023.07 257.469C1024.45 257.787 1025.86 258.078 1027.29 258.34C1030.15 258.846 1033.05 259.249 1035.97 259.595C1041.81 260.261 1047.7 260.682 1053.6 260.907C1065.4 261.338 1077.23 261.01 1089 259.989C1094.88 259.455 1100.74 258.743 1106.56 257.843C1112.38 256.944 1118.16 255.801 1123.89 254.499C1129.62 253.187 1135.26 251.603 1140.85 249.87C1146.43 248.099 1151.89 246.066 1157.27 243.864L1160.58 246.506C1160.69 246.272 1160.67 245.757 1160.66 245.775C1160.66 245.682 1160.64 245.597 1160.62 245.504C1160.6 245.419 1160.55 245.307 1160.53 245.269C1160.52 245.241 1160.51 245.213 1160.5 245.194C1160.48 245.101 1160.31 244.96 1160.37 244.998C1160.4 244.998 1160.35 245.007 1160.51 245.091C1160.63 245.157 1160.71 245.232 1160.86 245.307L1161.35 245.532C1161.65 245.691 1162.07 245.822 1162.44 245.963C1162.81 246.113 1163.21 246.244 1163.63 246.356C1164.45 246.609 1165.28 246.853 1166.16 247.04C1167.02 247.247 1167.88 247.462 1168.78 247.631C1172.3 248.38 1175.94 248.914 1179.57 249.439C1186.85 250.423 1194.21 251.144 1201.57 251.772C1205.26 252.072 1208.96 252.353 1212.64 252.597C1216.31 252.728 1219.97 252.906 1223.65 253.009L1234.72 252.953C1238.41 252.878 1242.12 252.709 1245.81 252.587C1260.61 251.95 1275.43 251.013 1290.25 250.001C1305.07 248.999 1319.91 248.005 1334.74 247.106C1364.43 245.382 1394.19 244.126 1423.96 244.389C1453.71 244.604 1483.47 245.991 1513 249.299C1483.38 246.816 1453.66 245.878 1423.97 246.244C1409.12 246.441 1394.28 246.919 1379.44 247.546C1372.02 247.856 1364.61 248.324 1357.2 248.708L1334.97 250.151C1320.17 251.219 1305.36 252.381 1290.55 253.552C1275.74 254.724 1260.9 255.876 1246.01 256.569C1242.28 256.71 1238.56 256.897 1234.82 257L1223.59 257.122C1219.84 257.037 1216.08 256.888 1212.32 256.766C1208.59 256.532 1204.88 256.269 1201.16 255.998C1193.73 255.407 1186.3 254.733 1178.87 253.768C1175.15 253.262 1171.44 252.737 1167.71 251.95C1166.78 251.781 1165.85 251.547 1164.91 251.322C1163.98 251.116 1163.04 250.844 1162.09 250.563C1161.62 250.441 1161.14 250.273 1160.66 250.085C1160.18 249.898 1159.71 249.757 1159.2 249.504L1158.45 249.149C1158.19 249.017 1157.9 248.821 1157.63 248.652C1157.38 248.521 1157.02 248.202 1156.72 247.902C1156.59 247.809 1156.34 247.453 1156.19 247.19L1156.07 246.975C1156.03 246.881 1155.97 246.722 1155.93 246.581C1155.89 246.441 1155.86 246.3 1155.85 246.15C1155.83 246.113 1155.82 245.551 1155.93 245.26L1159.24 247.902C1153.72 250.179 1148.11 252.278 1142.41 254.105C1136.69 255.895 1130.92 257.534 1125.06 258.884C1119.21 260.223 1113.31 261.404 1107.37 262.341C1101.43 263.269 1095.45 264.009 1089.46 264.562C1077.47 265.639 1065.42 265.958 1053.38 265.48C1047.36 265.236 1041.34 264.805 1035.34 264.102C1032.34 263.737 1029.34 263.315 1026.34 262.781C1024.84 262.5 1023.34 262.191 1021.83 261.835C1021.07 261.629 1020.32 261.46 1019.54 261.207L1018.37 260.833L1017.12 260.336C1017.06 260.317 1017.01 260.289 1016.96 260.261L1016.88 260.214C1011.37 256.897 1005.3 254.367 998.991 252.437C992.671 250.507 986.122 249.167 979.502 248.193C966.243 246.235 952.684 245.766 939.146 245.85C925.597 245.972 912.028 246.675 898.459 247.603C884.89 248.54 871.321 249.617 857.732 250.657C844.143 251.688 830.534 252.671 816.905 253.355C810.086 253.674 803.266 253.974 796.417 254.068C789.567 254.143 782.718 254.105 775.879 253.721C769.039 253.346 762.2 252.7 755.42 251.631C752.03 251.107 748.661 250.423 745.321 249.664C742.001 248.811 738.681 247.93 735.462 246.769C732.232 245.635 729.062 244.342 726.022 242.814C722.983 241.287 720.063 239.545 717.323 237.615C714.573 235.684 712.004 233.548 709.494 231.44C706.974 229.351 704.464 227.214 701.484 226.024L702.104 225.996C697.445 228.226 692.745 230.353 688.005 232.424C683.276 234.494 678.506 236.499 673.687 238.401C668.877 240.313 664.007 242.093 659.058 243.696C654.118 245.288 649.119 246.787 643.959 247.631Z" fill="#055661"/>
<path d="M0 214.434C3.32974 214.528 6.51948 215.558 9.66923 216.486C12.819 217.451 15.9187 218.528 19.0285 219.578C25.238 221.695 31.4375 223.813 37.687 225.79C50.186 229.715 62.865 233.107 75.754 235.581C88.623 238.083 101.672 239.769 114.771 240.416C118.041 240.631 121.32 240.668 124.6 240.781C127.88 240.772 131.16 240.865 134.429 240.743C140.989 240.668 147.528 240.172 154.048 239.619L153.728 239.666C164.727 237.164 175.906 235.646 187.075 234.438C198.254 233.267 209.453 232.461 220.672 231.992C231.882 231.543 243.101 231.318 254.31 231.252C265.519 231.233 276.718 231.43 287.917 231.711C299.116 232.002 310.295 232.498 321.474 233.079C332.654 233.642 343.823 234.391 354.972 235.225C377.28 236.912 399.558 238.991 421.727 241.774C399.418 240.219 377.1 238.935 354.782 237.886C349.202 237.614 343.623 237.389 338.043 237.174C332.464 236.949 326.884 236.733 321.304 236.555C310.145 236.199 298.976 235.956 287.817 235.759C265.499 235.468 243.171 235.572 220.912 236.555C209.793 237.108 198.684 237.82 187.635 238.935C176.596 240.06 165.597 241.587 154.838 243.882L154.778 243.892C154.698 243.911 154.598 243.92 154.518 243.929C147.858 244.417 141.189 244.838 134.509 244.829C131.17 244.913 127.83 244.782 124.5 244.744L119.501 244.529L117.001 244.417L114.511 244.229C107.851 243.789 101.232 243.021 94.6525 242.074C88.063 241.137 81.5235 239.928 75.054 238.476C68.5846 237.033 62.1751 235.394 55.8356 233.548C49.4961 231.711 43.2466 229.622 37.0471 227.429C30.8475 225.237 24.748 222.857 18.6485 220.468C15.5988 219.278 12.559 218.079 9.48925 216.945C6.39949 215.877 3.30974 214.696 0 214.434Z" fill="#055661"/>
<path d="M824.114 251.388C823.264 233.53 822.794 215.662 822.384 197.804C822.034 179.945 821.804 162.086 821.694 144.219L821.614 117.431L821.714 90.6439L821.994 63.856L822.484 37.0686V37.0407C822.494 36.4411 822.884 35.935 823.424 35.7007C825.224 34.9231 827.104 33.8456 828.784 32.6931C830.474 31.5219 832.033 30.1913 833.393 28.7202C836.093 25.7688 837.873 22.1056 837.893 18.2079C837.923 16.2684 837.483 14.3381 836.813 12.4736C836.043 10.6372 835.003 8.87561 833.743 7.2453C831.134 4.03155 827.854 1.21152 824.124 -0.980957C828.044 0.930431 831.643 3.46947 834.583 6.63638C836.023 8.24794 837.263 10.0187 838.243 11.9488C839.113 13.9164 839.723 16.0151 839.833 18.1795C840.083 22.5082 838.353 26.8842 835.483 30.2666C834.053 31.9718 832.413 33.499 830.624 34.8576C828.814 36.2161 826.974 37.4062 824.814 38.4462L825.754 37.0783L826.244 63.8656L826.524 90.653L826.624 117.441L826.544 144.228C826.444 162.087 826.204 179.945 825.864 197.813C825.434 215.662 824.964 233.53 824.114 251.388Z" fill="#055661"/>
<path d="M730.232 -1C726.462 0.508497 723.192 3.01963 721.023 6.12095C719.963 7.68566 719.243 9.41872 718.813 11.1896C718.693 12.0984 718.473 12.9793 718.493 13.8975C718.493 14.3566 718.443 14.8065 718.473 15.2563L718.603 16.6146C718.633 16.8394 718.643 17.0645 718.673 17.2894L718.823 17.9546L719.123 19.285C719.453 20.147 719.653 21.0371 720.083 21.8616C720.783 23.5575 721.832 25.1223 722.912 26.6402C724.012 28.158 725.322 29.5447 726.702 30.8565C728.082 32.1401 729.622 33.4048 731.132 34.398C731.552 34.6697 731.782 35.1009 731.802 35.5412V35.5879C732.032 44.2547 732.142 52.9312 732.312 61.598L732.602 87.6077L732.702 113.618L732.632 139.627C732.542 156.97 732.302 174.304 731.952 191.647C731.542 208.99 731.072 226.324 730.212 243.667C729.342 226.324 728.882 208.99 728.472 191.647C728.122 174.304 727.892 156.97 727.792 139.627L727.722 113.618L727.822 87.6077L728.112 61.598C728.282 52.9312 728.392 44.2547 728.622 35.5879L729.292 36.7779C727.512 35.4942 726.032 34.1451 724.592 32.6741C723.182 31.1937 721.852 29.6477 720.743 27.9518C719.633 26.2653 718.633 24.4947 717.973 22.5927C717.573 21.6745 717.393 20.6719 717.103 19.7255L716.863 18.2451L716.753 17.5049C716.723 17.2612 716.733 17.0085 716.723 16.7555L716.673 15.2654C716.673 14.7688 716.753 14.2724 716.793 13.7758C716.833 12.7826 717.133 11.8175 717.353 10.8524C717.973 8.95037 718.903 7.15129 720.153 5.56783C721.402 3.98438 722.972 2.65411 724.682 1.55787C726.412 0.471001 728.272 -0.409718 730.232 -1Z" fill="#055661"/>
<path d="M735.502 14.6187C742.411 14.3095 749.261 14.3658 756.1 14.4407C762.93 14.5438 769.749 14.731 776.549 14.9371C783.348 15.1339 790.138 15.359 796.927 15.4715C800.317 15.5089 803.707 15.5649 807.096 15.4619C810.496 15.3963 813.856 15.209 817.265 14.6187C814.216 16.1834 810.776 17.0077 807.386 17.7105C803.977 18.3476 800.527 18.8071 797.077 19.0976C790.178 19.6691 783.268 19.7534 776.389 19.5473C769.509 19.3318 762.65 18.8255 755.83 18.0385C749.011 17.2327 742.211 16.2209 735.502 14.6187Z" fill="#055661"/>
<path d="M739.722 25.8345C739.852 26.5466 740.422 26.8837 741.012 27.1086C741.592 27.3335 742.221 27.4928 742.881 27.5958C743.191 27.6708 743.521 27.7178 743.871 27.7459L744.861 27.8676C745.551 27.9144 746.231 27.9612 746.901 28.0268L755.25 28.4202C758.06 28.5608 760.89 28.7763 763.75 29.0854C766.61 29.4602 769.489 29.8163 772.419 30.7064C769.579 31.737 766.69 32.3928 763.77 32.7207C760.86 33.0955 757.91 33.1893 754.95 33.03C752.001 32.8801 749.021 32.4303 746.101 31.5683C745.371 31.3153 744.641 31.0531 743.941 30.7626C743.221 30.3972 742.531 30.1164 741.861 29.6386C741.202 29.2076 740.552 28.7014 740.072 28.0268C739.952 27.8488 739.842 27.699 739.742 27.5117C739.662 27.3149 739.582 27.1272 739.522 26.9398C739.482 26.5556 739.472 26.1343 739.722 25.8345Z" fill="#055661"/>
<path d="M892.03 -1C908.668 28.8045 918.438 59.4618 916.678 91.5806C908.958 232.564 808.666 283.038 760.29 315.475" stroke="#055661" stroke-width="20" stroke-miterlimit="10" stroke-linecap="round" stroke-linejoin="round"/>
<path d="M643.959 332.996C751.99 288.715 750.011 327.14 854.442 328.601Z" fill="white"/>
<path d="M643.959 332.996C660.008 325.444 676.636 318.801 694.145 314.267C702.894 311.99 711.914 310.444 721.053 309.806C730.202 309.197 739.461 309.657 748.471 310.996C757.5 312.355 766.269 314.435 774.989 316.45C783.688 318.549 792.377 320.441 801.137 322.128C809.896 323.758 818.725 325.135 827.614 326.175C836.504 327.234 845.453 327.927 854.432 328.611C845.433 328.949 836.404 328.864 827.384 328.433C818.375 327.918 809.366 327.028 800.437 325.679C791.487 324.395 782.648 322.559 773.879 320.713C765.119 318.829 756.43 316.815 747.691 315.569C730.252 312.73 712.434 313.958 695.095 317.752C677.756 321.547 660.838 327.196 643.959 332.996Z" fill="#055661"/>
</g>
<defs>
<clipPath id="clip0">
<rect width="1513" height="361" fill="white"/>
</clipPath>
</defs>
</svg>
