<svg width="1513" height="1105" viewBox="0 0 1513 1105" fill="none" xmlns="http://www.w3.org/2000/svg">
<g clip-path="url(#clip0)">
<rect width="1513" height="1105" fill="white"/>
<path d="M893.579 1106.18C831.389 994.793 673.149 895.223 660.949 775.705C651.179 679.995 689.579 621.089 719.199 590.675C719.199 590.675 1067.81 301.1 893.579 0" stroke="#055661" stroke-width="20" stroke-miterlimit="10" stroke-linecap="round" stroke-linejoin="round"/>
<path d="M859.229 1062.67L860.599 1056.58L861.289 1053.53L862.059 1050.49L863.619 1044.44L865.369 1038.42L866.249 1035.41L867.229 1032.42C867.889 1030.43 868.519 1028.44 869.219 1026.46C870.669 1022.52 872.069 1018.56 873.719 1014.67C875.249 1010.76 877.059 1006.93 878.799 1003.08L881.609 997.388C882.539 995.486 883.599 993.641 884.599 991.767C888.689 984.318 893.219 977.066 898.219 970.104C908.299 956.218 920.309 943.532 933.899 932.616C947.479 921.682 962.569 912.538 978.429 905.08C994.299 897.603 1010.91 891.775 1027.76 887.062C1044.62 882.349 1061.75 878.732 1078.9 875.612C1096.06 872.473 1113.27 869.859 1130.39 866.861C1138.94 865.343 1147.47 863.732 1155.92 861.783C1160.14 860.799 1164.33 859.731 1168.49 858.531C1172.64 857.313 1176.75 855.964 1180.78 854.428C1176.83 856.142 1172.79 857.669 1168.69 859.084C1164.58 860.461 1160.43 861.727 1156.25 862.898C1147.88 865.221 1139.41 867.226 1130.92 869.119C1113.93 872.885 1096.87 876.258 1079.99 880.128C1063.11 883.988 1046.38 888.308 1030.1 893.658C1013.83 898.999 998.009 905.389 983.169 913.222C968.329 921.045 954.499 930.359 942.309 941.171C930.099 951.965 919.569 964.257 910.869 977.553C906.559 984.224 902.699 991.148 899.249 998.241C898.419 1000.03 897.509 1001.78 896.739 1003.59L894.399 1009.02C892.959 1012.68 891.459 1016.31 890.219 1020.04C888.869 1023.74 887.749 1027.5 886.579 1031.25C886.019 1033.13 885.529 1035.03 885.009 1036.93L884.229 1039.77L883.549 1042.63L882.189 1048.37L881.009 1054.14L880.429 1057.03L879.929 1059.93L878.929 1065.74L878.889 1065.98C878.019 1071.03 872.899 1074.47 867.439 1073.68C861.979 1072.88 858.259 1068.13 859.129 1063.09C859.169 1062.97 859.199 1062.8 859.229 1062.67Z" fill="#055661"/>
<path d="M883.629 1013.05C888.749 1009.6 893.519 1005.74 898.199 1001.79C902.889 997.856 907.479 993.809 912.439 990.117C914.929 988.29 917.519 986.547 920.329 985.123C921.729 984.392 923.209 983.793 924.729 983.287C926.269 982.846 927.859 982.453 929.509 982.387C932.789 982.162 936.119 983.128 938.849 984.777C941.599 986.426 943.769 988.759 945.859 990.876C954.519 999.356 964.219 1006.93 974.529 1013.62C979.719 1016.92 985.089 1019.97 990.599 1022.79C993.409 1024.09 996.159 1025.52 999.039 1026.68C1000.47 1027.28 1001.88 1027.92 1003.33 1028.48L1007.7 1030.11C1009.14 1030.69 1010.64 1031.12 1012.12 1031.61C1013.61 1032.06 1015.07 1032.6 1016.58 1033C1019.6 1033.78 1022.58 1034.68 1025.66 1035.24C1027.19 1035.55 1028.71 1035.91 1030.25 1036.17L1034.89 1036.85C1035.66 1036.96 1036.43 1037.1 1037.21 1037.18L1039.55 1037.38L1044.22 1037.78C1056.71 1038.44 1069.28 1037.06 1081.25 1033.77C1093.23 1030.49 1104.56 1025.32 1114.97 1018.9C1125.4 1012.48 1134.93 1004.87 1143.81 996.667L1145.21 999.749C1138.51 999.703 1132 999.103 1125.46 998.119C1118.94 997.126 1112.48 995.636 1106.23 993.453C1100.02 991.214 1093.93 988.319 1088.8 984.074C1086.26 981.957 1083.88 979.586 1082.06 976.841C1080.21 974.114 1078.83 971.125 1077.92 968.015C1077.6 966.937 1078.29 965.822 1079.46 965.522C1079.71 965.457 1079.97 965.438 1080.22 965.457L1080.31 965.466C1085.69 965.906 1091.34 965.935 1096.86 965.766C1102.41 965.588 1107.96 965.157 1113.48 964.501C1124.5 963.171 1135.41 960.959 1145.93 957.708C1156.45 954.466 1166.62 950.241 1176.11 944.956C1185.6 939.681 1194.35 933.31 1202.18 926.086C1206.11 922.488 1209.72 918.6 1213.13 914.571C1214.86 912.575 1216.44 910.467 1218.05 908.396C1219.57 906.26 1221.14 904.152 1222.54 901.931C1224.02 899.767 1225.32 897.499 1226.68 895.269L1228.58 891.85L1229.52 890.135L1230.4 888.392C1232.82 883.773 1234.82 878.976 1236.77 874.169C1244.22 854.783 1248.12 834.273 1249.56 813.66L1251.4 816.003C1246.57 814.907 1241.52 814.026 1236.53 813.22C1231.52 812.415 1226.48 811.749 1221.43 811.168C1211.32 810.016 1201.16 809.266 1190.99 808.91C1170.65 808.236 1150.21 809.041 1130.11 811.937C1125.07 812.592 1120.09 813.539 1115.1 814.419C1110.15 815.488 1105.17 816.453 1100.29 817.765C1095.36 818.917 1090.56 820.454 1085.71 821.85C1080.96 823.499 1076.13 824.979 1071.49 826.9C1052.69 834.04 1035.15 843.868 1019.42 855.739L1019.36 855.786C1018.59 856.367 1017.44 856.264 1016.81 855.543C1016.79 855.514 1016.77 855.486 1016.75 855.467C1015.93 854.427 1015.34 853.481 1014.74 852.451C1014.15 851.439 1013.61 850.408 1013.14 849.349C1012.17 847.241 1011.43 845.049 1010.89 842.819C1009.82 838.349 1009.63 833.693 1010.43 829.176C1011.22 824.66 1012.9 820.304 1015.26 816.35C1017.6 812.377 1020.53 808.742 1023.81 805.453L1025.37 807.88C1020.99 808.938 1016.57 810.372 1012.26 811.89C1010.09 812.639 1007.96 813.482 1005.82 814.307C1003.71 815.197 1001.57 816.022 999.499 816.977C991.139 820.678 983.059 824.942 975.409 829.795C960.119 839.492 946.529 851.56 935.919 865.661C925.349 879.791 917.999 895.944 914.169 912.8C910.439 929.684 909.769 947.13 911.609 964.332C909.409 947.177 909.619 929.656 913.139 912.603C916.719 895.578 923.869 879.135 934.349 864.668C944.869 850.23 958.439 837.712 973.899 827.771C981.619 822.777 989.779 818.373 998.239 814.541C1000.34 813.548 1002.51 812.696 1004.64 811.777C1006.81 810.925 1008.97 810.044 1011.17 809.266C1015.58 807.673 1019.97 806.202 1024.62 805.031C1025.46 804.816 1026.33 805.275 1026.56 806.062C1026.71 806.558 1026.56 807.065 1026.21 807.421L1026.17 807.458C1023.07 810.625 1020.34 814.082 1018.19 817.811C1016.02 821.531 1014.52 825.551 1013.85 829.673C1013.16 833.805 1013.38 838.031 1014.39 842.097C1014.9 844.13 1015.6 846.117 1016.5 848.028C1016.94 848.984 1017.45 849.921 1017.98 850.829C1018.51 851.719 1019.13 852.657 1019.71 853.388L1017.04 853.116C1032.95 840.889 1050.73 830.657 1069.85 823.283C1074.57 821.306 1079.48 819.779 1084.31 818.073C1089.24 816.621 1094.13 815.038 1099.13 813.848C1104.09 812.489 1109.15 811.487 1114.18 810.372C1119.25 809.454 1124.31 808.47 1129.43 807.786C1149.84 804.769 1170.57 803.813 1191.19 804.478C1201.51 804.816 1211.8 805.565 1222.05 806.718C1227.17 807.299 1232.29 807.964 1237.38 808.779C1242.49 809.594 1247.52 810.466 1252.65 811.618C1253.81 811.881 1254.56 812.864 1254.49 813.932V813.97C1253.05 834.901 1249.16 855.842 1241.5 875.743C1239.5 880.681 1237.42 885.609 1234.92 890.369L1234.01 892.168L1233.04 893.939L1231.08 897.462C1229.68 899.767 1228.32 902.1 1226.79 904.339C1225.34 906.625 1223.71 908.799 1222.13 911.01C1220.46 913.156 1218.82 915.33 1217.02 917.4C1213.48 921.56 1209.73 925.58 1205.65 929.309C1197.53 936.795 1188.44 943.372 1178.62 948.816C1168.8 954.26 1158.3 958.626 1147.44 961.915C1136.59 965.213 1125.38 967.433 1114.07 968.745C1108.41 969.392 1102.73 969.804 1097.03 969.964C1091.31 970.113 1085.67 970.076 1079.84 969.57L1082.23 967.031C1083.02 969.729 1084.2 972.325 1085.79 974.705C1087.36 977.103 1089.44 979.202 1091.71 981.104C1096.27 984.926 1101.92 987.672 1107.78 989.818C1113.69 991.907 1119.88 993.406 1126.18 994.418C1132.46 995.43 1138.92 996.058 1145.22 996.161H1145.29C1146.36 996.179 1147.22 996.994 1147.2 997.988C1147.19 998.475 1146.97 998.925 1146.62 999.243C1137.5 1007.53 1127.69 1015.21 1116.95 1021.68C1106.23 1028.16 1094.54 1033.38 1082.18 1036.65C1069.84 1039.93 1056.87 1041.24 1044.07 1040.44L1039.28 1039.99L1036.89 1039.77C1036.1 1039.67 1035.31 1039.52 1034.52 1039.41L1029.78 1038.66C1028.21 1038.39 1026.66 1038.01 1025.1 1037.68C1021.96 1037.08 1018.92 1036.13 1015.85 1035.31C1014.32 1034.88 1012.83 1034.33 1011.32 1033.84C1009.82 1033.34 1008.3 1032.88 1006.84 1032.28L1002.42 1030.57C1000.95 1029.98 999.529 1029.31 998.089 1028.68C995.179 1027.46 992.419 1025.97 989.589 1024.62C984.049 1021.68 978.669 1018.53 973.479 1015.11C963.159 1008.2 953.529 1000.43 944.919 991.757C943.859 990.651 942.809 989.536 941.749 988.515C940.679 987.484 939.489 986.566 938.239 985.742C935.709 984.168 932.689 983.24 929.629 983.399C928.099 983.437 926.589 983.783 925.109 984.186C923.649 984.655 922.209 985.208 920.829 985.901C918.069 987.26 915.479 988.937 912.979 990.707C907.979 994.277 903.299 998.241 898.519 1002.08C893.689 1005.92 888.829 1009.69 883.629 1013.05Z" fill="#055661"/>
<path d="M678.029 851.796C677.809 851.664 677.329 851.411 676.919 851.205C676.519 850.99 676.049 850.765 675.599 850.54C674.709 850.09 673.779 849.65 672.829 849.228C670.969 848.347 668.999 847.561 667.069 846.736C663.129 845.181 659.119 843.709 655.029 842.398C652.969 841.77 650.939 841.068 648.849 840.505L642.589 838.781C638.369 837.797 634.149 836.729 629.859 835.97C612.759 832.569 595.109 831.304 577.479 831.745C559.839 832.195 542.199 834.481 524.919 838.36C516.239 840.196 507.749 842.726 499.259 845.284L486.689 849.603L485.119 850.146L483.579 850.765L480.499 852.001L474.339 854.485C472.289 855.328 470.209 856.106 468.189 857.005L462.169 859.797L456.149 862.589C454.139 863.526 452.109 864.416 450.179 865.494L438.449 871.677L435.509 873.224C434.549 873.758 433.609 874.339 432.659 874.901L426.969 878.274L421.269 881.656L418.419 883.343C417.459 883.896 416.569 884.542 415.649 885.132L404.629 892.422C402.809 893.659 400.919 894.811 399.149 896.113L393.829 900.011L383.179 907.806L381.849 908.781L380.569 909.812L378.009 911.873L372.889 916.005C369.489 918.769 366.029 921.486 362.659 924.297L352.809 932.983L347.879 937.33C346.249 938.792 344.559 940.197 343.019 941.743L333.579 950.832L328.849 955.376C327.289 956.903 325.649 958.374 324.179 959.967L306.089 978.865L323.239 959.199C324.639 957.531 326.199 956.003 327.689 954.401L332.199 949.651L341.219 940.141C342.689 938.529 344.309 937.049 345.879 935.513L350.609 930.94L360.079 921.786C363.319 918.816 366.669 915.94 369.959 913.007L374.919 908.631L377.399 906.439L378.639 905.342L379.929 904.303L390.289 895.973L395.479 891.804C397.209 890.417 399.059 889.161 400.849 887.84L411.659 879.979C412.569 879.333 413.439 878.639 414.389 878.039L417.199 876.203L422.819 872.521L428.449 868.839C429.389 868.23 430.319 867.602 431.269 867.011L434.179 865.306L445.849 858.486C447.769 857.305 449.799 856.302 451.809 855.253L457.839 852.124L463.879 848.994C465.909 847.982 468.009 847.092 470.079 846.136L476.299 843.307L479.409 841.892L480.969 841.189L482.569 840.561L495.359 835.539C504.029 832.504 512.739 829.505 521.709 827.2C539.569 822.385 558.029 819.171 576.739 817.896C595.439 816.641 614.389 817.184 633.059 820.061C637.739 820.689 642.369 821.644 647.019 822.525L653.939 824.109C656.249 824.633 658.519 825.298 660.819 825.898C665.389 827.153 669.919 828.596 674.429 830.152C676.679 830.995 678.919 831.782 681.169 832.719C682.289 833.16 683.419 833.637 684.549 834.143C685.119 834.396 685.669 834.63 686.269 834.912C686.869 835.193 687.389 835.427 688.159 835.821L688.359 835.924C693.189 838.406 694.929 844.047 692.239 848.516C689.549 852.985 683.459 854.588 678.629 852.105C678.409 852.011 678.199 851.899 678.029 851.796Z" fill="#055661"/>
<path d="M581.379 825.897C577.709 823.068 573.679 820.679 569.549 818.477C565.409 816.284 561.139 814.307 556.749 812.602C548.009 809.098 538.859 806.503 529.559 804.675C520.249 802.848 510.769 801.837 501.279 801.527C498.899 801.499 496.529 801.377 494.149 801.424L487.019 801.584C482.279 801.884 477.529 802.118 472.819 802.717C468.089 803.148 463.419 804.001 458.739 804.694L451.769 806.072L448.289 806.756L444.839 807.589L437.949 809.248L431.139 811.187C426.569 812.406 422.139 814.007 417.659 815.46C399.829 821.569 382.729 829.402 366.289 838.237L365.429 835.267C367.909 835.295 370.249 835.492 372.639 835.801C375.019 836.12 377.389 836.551 379.719 837.207C382.039 837.881 384.369 838.659 386.539 839.877C388.699 841.076 390.749 842.631 392.289 844.674C392.869 845.433 392.669 846.492 391.839 847.026L391.739 847.082L391.669 847.119C383.269 851.823 374.909 856.602 367.089 862.064C363.079 864.669 359.369 867.62 355.559 870.45L350.099 874.966L348.739 876.09L347.439 877.28L344.849 879.66C337.989 886.059 331.779 893.03 326.569 900.61C321.339 908.172 317.159 916.323 313.929 924.802C307.359 941.78 305.049 959.966 300.609 977.918C298.379 986.894 295.549 995.842 291.579 1004.41C287.629 1012.97 282.519 1021.11 276.389 1028.5L272.859 1025.37C280.709 1019.44 288.809 1013.99 297.289 1008.91C305.789 1003.9 314.599 999.216 324.319 995.964C326.769 995.196 329.239 994.465 331.849 993.997C334.439 993.538 337.109 993.182 339.909 993.35C344.929 993.631 349.799 993.894 354.739 993.894C364.579 993.959 374.419 993.247 384.139 991.795L387.789 991.27L391.409 990.586L395.029 989.893C396.229 989.659 397.449 989.462 398.629 989.143L405.779 987.419C406.369 987.269 406.969 987.138 407.569 986.979L409.329 986.463L412.849 985.424L416.369 984.383C416.959 984.205 417.549 984.046 418.129 983.859L419.859 983.25L426.779 980.823C429.109 980.073 431.329 979.071 433.599 978.171L440.369 975.408C458.209 967.537 474.979 957.643 490.689 946.474L490.719 946.455C491.669 945.781 493.039 945.94 493.769 946.83C493.989 947.093 494.129 947.392 494.189 947.702C495.229 952.995 495.989 958.233 496.599 963.536C497.189 968.83 497.599 974.152 497.689 979.493C497.779 984.833 497.579 990.211 496.779 995.571C496.369 998.251 495.799 1000.93 494.959 1003.58C494.119 1006.22 492.979 1008.85 491.269 1011.26L488.389 1008.96C492.769 1005.54 497.279 1002.51 501.909 999.553C506.529 996.592 511.329 993.875 516.179 991.261C525.939 986.117 536.129 981.629 546.739 978.162C549.389 977.281 552.099 976.569 554.769 975.764C557.479 975.07 560.219 974.461 562.939 973.805C568.179 972.699 573.179 970.61 577.749 967.902C582.329 965.195 586.489 961.85 590.209 958.139C593.949 954.429 597.269 950.363 600.279 946.099C606.269 937.536 610.849 928.138 614.309 918.422C615.139 915.976 615.989 913.54 616.669 911.057C617.439 908.593 618.009 906.082 618.639 903.59C619.759 898.568 620.729 893.508 621.319 888.402C622.009 883.305 622.289 878.17 622.489 873.036C622.549 867.901 622.499 862.757 622.089 857.623C621.369 847.363 619.689 837.141 617.069 827.125C622.769 847.035 624.919 867.93 622.639 888.524C622.139 893.677 621.259 898.792 620.219 903.88C619.629 906.41 619.099 908.959 618.369 911.46C617.729 913.981 616.919 916.464 616.119 918.946C612.789 928.841 608.319 938.463 602.359 947.318C599.359 951.731 595.969 955.928 592.159 959.798C588.349 963.667 584.069 967.19 579.289 970.086C574.519 972.981 569.239 975.257 563.619 976.494C560.959 977.169 558.289 977.787 555.639 978.49C553.029 979.305 550.379 980.027 547.799 980.917C537.439 984.412 527.469 988.909 517.939 994.062C513.199 996.676 508.509 999.394 503.999 1002.35C499.499 1005.28 495.029 1008.36 490.919 1011.63C490.109 1012.28 488.899 1012.19 488.199 1011.44C487.629 1010.83 487.589 1009.96 488.039 1009.32C489.439 1007.3 490.439 1004.97 491.179 1002.55C491.919 1000.12 492.419 997.613 492.789 995.065C493.489 989.968 493.629 984.758 493.489 979.558C493.349 974.358 492.929 969.139 492.319 963.939C491.699 958.758 490.899 953.539 489.879 948.451L493.379 949.669C477.519 961.063 460.539 971.21 442.389 979.324L435.489 982.182C433.179 983.119 430.919 984.149 428.539 984.927L421.469 987.419L419.699 988.047C419.109 988.244 418.499 988.412 417.899 988.59L414.299 989.659L410.699 990.726L408.899 991.261C408.299 991.42 407.679 991.561 407.069 991.711L399.749 993.491C398.539 993.809 397.289 994.015 396.059 994.268L392.349 994.98L388.639 995.683L384.899 996.226C374.929 997.726 364.819 998.475 354.709 998.428C349.669 998.438 344.569 998.175 339.639 997.904C337.439 997.763 335.119 998.072 332.839 998.485C330.539 998.888 328.249 999.571 325.989 1000.29C316.919 1003.34 308.309 1007.9 299.999 1012.78C291.719 1017.72 283.649 1023.14 276.039 1028.86L276.009 1028.88C274.949 1029.68 273.399 1029.53 272.549 1028.55C271.819 1027.72 271.829 1026.55 272.509 1025.72C278.419 1018.62 283.319 1010.84 287.139 1002.61C290.979 994.371 293.739 985.714 295.949 976.897C298.159 968.071 299.829 959.076 301.859 950.091C303.859 941.106 306.239 932.092 309.639 923.359C313.009 914.627 317.409 906.185 322.869 898.371C328.309 890.547 334.779 883.38 341.859 876.84L344.539 874.404L345.879 873.186L347.279 872.033L352.899 867.451C356.819 864.594 360.639 861.624 364.749 859.01C372.769 853.529 381.289 848.768 389.839 844.093L389.219 846.539C388.089 845.021 386.509 843.756 384.699 842.725C382.899 841.676 380.809 840.954 378.709 840.326C376.589 839.708 374.389 839.277 372.159 838.959C369.949 838.649 367.639 838.434 365.459 838.397H365.409C364.459 838.378 363.709 837.656 363.729 836.775C363.739 836.194 364.089 835.698 364.599 835.426C381.279 826.666 398.629 818.927 416.699 812.93C421.239 811.497 425.729 809.922 430.369 808.742L437.269 806.849L444.259 805.238L447.749 804.432L451.279 803.776L458.349 802.492C463.099 801.865 467.829 801.078 472.619 800.712C477.389 800.178 482.189 800.019 486.979 799.784L494.179 799.738C496.579 799.728 498.979 799.888 501.369 799.953C510.949 800.412 520.489 801.583 529.839 803.57C539.169 805.575 548.349 808.283 557.039 812.002C561.409 813.811 565.649 815.881 569.739 818.168C573.799 820.51 577.779 822.993 581.379 825.897Z" fill="#055661"/>
<path d="M778.159 523.973C779.609 524.067 780.729 524.179 781.969 524.292C783.169 524.423 784.379 524.535 785.559 524.685C787.939 524.966 790.289 525.285 792.629 525.632C797.319 526.316 801.949 527.149 806.559 528.058C815.769 529.904 824.859 532.153 833.789 534.814C851.639 540.154 868.949 547.059 884.999 555.942C889.049 558.087 892.919 560.524 896.809 562.894L902.499 566.661C903.459 567.27 904.379 567.935 905.289 568.609L908.029 570.615L910.769 572.61C911.669 573.294 912.529 574.016 913.409 574.718C915.149 576.142 916.939 577.52 918.639 578.982L923.649 583.46L924.899 584.575L926.089 585.756L928.459 588.107C931.699 591.171 934.539 594.573 937.509 597.833C938.909 599.529 940.259 601.262 941.629 602.977L943.669 605.554L945.549 608.233C946.799 610.023 948.069 611.794 949.279 613.593L952.669 619.139C953.229 620.067 953.809 620.976 954.339 621.913L955.839 624.771L958.829 630.477L955.289 625.052L953.519 622.353C952.899 621.473 952.229 620.61 951.589 619.748L947.709 614.567C946.339 612.89 944.909 611.26 943.519 609.611L941.419 607.147L939.169 604.795C937.659 603.239 936.179 601.656 934.659 600.119C931.439 597.187 928.379 594.132 924.939 591.424L922.429 589.344L921.179 588.304L919.859 587.33L914.609 583.432C912.839 582.158 910.979 580.987 909.179 579.759C908.269 579.16 907.369 578.532 906.449 577.951L903.629 576.255L900.819 574.559C899.889 573.988 898.949 573.435 897.969 572.919L892.189 569.781C888.239 567.832 884.339 565.836 880.279 564.112C864.199 556.963 847.159 551.819 829.839 548.212C821.169 546.413 812.419 545.036 803.639 544.033C799.249 543.555 794.859 543.143 790.479 542.881C788.289 542.74 786.099 542.628 783.939 542.562C782.849 542.515 781.779 542.506 780.709 542.478C779.679 542.469 778.519 542.459 777.689 542.478C772.159 542.637 767.539 538.618 767.369 533.502C767.199 528.386 771.549 524.114 777.069 523.954C777.399 523.945 777.719 523.954 778.029 523.973H778.159Z" fill="#055661"/>
<path d="M803.259 535.75C810.849 531.431 818.829 527.655 827.149 524.61C831.329 523.139 835.559 521.781 839.889 520.731C842.039 520.15 844.229 519.729 846.419 519.251C847.519 519.035 848.619 518.857 849.719 518.661L851.369 518.37L853.029 518.145C870.769 515.587 889.199 517.208 906.279 522.511C914.819 525.182 923.039 528.667 930.859 532.78C938.669 536.922 946.089 541.672 953.109 546.872C960.119 552.082 966.739 557.75 972.939 563.775C976.039 566.792 979.039 569.893 981.919 573.088C984.799 576.302 987.569 579.534 990.199 583.048C990.829 583.891 990.599 585.044 989.689 585.624C989.089 586.009 988.339 586.046 987.719 585.784L987.649 585.756C986.969 585.465 986.039 585.334 985.039 585.362C984.039 585.381 982.969 585.531 981.899 585.756C980.829 585.981 979.749 586.28 978.689 586.627C977.639 586.973 976.539 587.386 975.589 587.798L976.269 584.763C983.629 592.652 989.669 601.628 993.999 611.269C998.349 620.901 1001.05 631.123 1002.33 641.457C1003.61 651.792 1003.46 662.239 1002.25 672.546C1001.64 677.699 1000.75 682.824 999.589 687.893C999.009 690.432 998.369 692.953 997.639 695.464C996.909 697.993 996.139 700.439 995.169 702.997C994.799 703.981 993.749 704.571 992.679 704.486H992.639C981.319 703.578 970.039 701.788 959.079 698.808C948.139 695.82 937.509 691.622 927.759 686.019C918.009 680.435 909.159 673.426 901.849 665.209C898.199 661.096 894.919 656.702 892.129 652.036C890.729 649.703 889.449 647.314 888.309 644.859C887.739 643.632 887.199 642.385 886.709 641.12C886.219 639.827 885.769 638.619 885.369 637.167L889.309 638.131C885.519 641.945 881.849 646.021 878.379 650.153C874.909 654.303 871.619 658.585 868.629 663.017C865.649 667.449 862.939 672.03 860.889 676.809C859.869 679.198 859.009 681.625 858.449 684.08C857.899 686.535 857.649 689.018 857.939 691.397L857.949 691.463C858.069 692.465 857.299 693.365 856.219 693.477C855.719 693.533 855.239 693.403 854.849 693.15C847.999 688.643 841.739 683.714 835.679 678.496C829.639 673.277 823.929 667.73 818.579 661.902C807.909 650.237 798.699 637.326 792.189 623.234C785.699 609.161 782.129 593.86 782.549 578.579C782.639 574.765 783.009 570.961 783.529 567.176C784.119 563.4 784.889 559.662 785.899 555.97C787.939 548.596 790.859 541.456 794.369 534.607C787.799 548.483 783.869 563.494 783.929 578.588C783.959 582.355 784.179 586.121 784.639 589.859C785.129 593.598 785.819 597.308 786.709 600.972C788.549 608.299 791.189 615.438 794.519 622.287C801.129 636.033 810.379 648.597 821.049 659.934C826.399 665.603 832.109 670.972 838.129 676.031C844.139 681.063 850.479 685.897 857.069 690.095L853.979 691.856C853.579 688.952 853.839 686.085 854.409 683.349C854.989 680.603 855.869 677.952 856.939 675.403C859.089 670.297 861.869 665.509 864.909 660.918C867.959 656.327 871.289 651.924 874.799 647.651C878.329 643.379 881.969 639.256 885.909 635.236C886.759 634.365 888.209 634.299 889.149 635.086C889.489 635.377 889.719 635.733 889.829 636.117L889.849 636.192C890.149 637.26 890.609 638.506 891.059 639.659C891.529 640.83 892.039 641.992 892.579 643.144C893.679 645.449 894.899 647.707 896.249 649.909C898.939 654.312 902.059 658.491 905.539 662.398C912.519 670.203 920.969 676.874 930.309 682.196C939.649 687.537 949.869 691.547 960.459 694.414C971.049 697.272 981.999 699.071 993.039 699.98L990.509 701.46C991.369 699.202 992.159 696.738 992.859 694.33C993.559 691.903 994.199 689.458 994.769 686.994C995.909 682.075 996.779 677.09 997.389 672.087C998.609 662.08 998.729 651.961 997.589 641.982C996.429 632.004 993.909 622.166 989.819 612.899C985.749 603.623 980.039 594.994 973.029 587.367L972.999 587.339C972.249 586.524 972.359 585.306 973.239 584.612C973.379 584.5 973.549 584.407 973.709 584.332C974.929 583.807 976.059 583.404 977.279 583.02C978.479 582.645 979.709 582.317 980.979 582.073C982.249 581.83 983.569 581.652 984.959 581.642C986.339 581.642 987.849 581.802 989.359 582.458L986.809 585.166C984.409 581.858 981.689 578.579 978.929 575.412C976.149 572.245 973.249 569.153 970.249 566.155C964.249 560.158 957.829 554.508 951.009 549.299C944.199 544.099 936.979 539.339 929.369 535.179C921.759 531.047 913.749 527.524 905.429 524.807C897.099 522.136 888.479 520.15 879.689 519.279C875.299 518.82 870.879 518.576 866.459 518.642C862.039 518.689 857.609 518.932 853.219 519.494C835.619 521.527 818.709 527.552 803.259 535.75Z" fill="#055661"/>
<path d="M891.028 271.323C898.028 262.459 904.428 253.202 909.828 243.467C915.208 233.742 919.338 223.407 921.618 212.754C922.678 207.414 923.218 202.007 923.148 196.62C923.058 191.232 922.288 185.854 920.748 180.691C919.198 175.529 916.978 170.535 913.938 165.981C912.458 163.695 910.788 161.503 908.958 159.46C908.048 158.43 907.078 157.446 906.098 156.49C905.108 155.572 904.028 154.616 903.018 153.876L904.818 154.101C904.018 154.438 903.048 154.935 902.188 155.441C901.738 155.675 901.308 155.965 900.878 156.228C900.438 156.499 900.008 156.762 899.588 157.071L898.328 157.942L897.108 158.879C896.278 159.488 895.518 160.172 894.748 160.837C891.678 163.536 888.968 166.591 886.548 169.823C885.388 171.481 884.198 173.112 883.208 174.864C882.118 176.56 881.238 178.368 880.318 180.148C879.828 181.029 879.448 181.956 879.048 182.875L877.848 185.629C877.128 187.494 876.498 189.396 875.808 191.27V191.279C875.428 192.329 874.198 192.9 873.058 192.544C871.978 192.207 871.368 191.148 871.648 190.146C871.948 189.077 872.198 187.784 872.398 186.566C872.588 185.329 872.748 184.083 872.858 182.828C873.088 180.317 873.168 177.787 873.108 175.257C873.018 170.198 872.358 165.138 871.288 160.163C869.118 150.203 865.228 140.58 860.028 131.595C854.878 122.572 848.368 114.233 841.118 106.513C833.858 98.7828 825.758 91.7184 817.178 85.1878L820.598 84.9536C818.358 87.3054 816.168 89.9477 814.088 92.5618C811.998 95.1853 810.048 97.9211 808.138 100.666C804.378 106.194 800.968 111.947 798.008 117.869C795.048 123.79 792.538 129.909 790.548 136.158C788.518 142.398 787.138 148.807 786.388 155.263L786.088 157.68L785.948 160.116C785.878 161.737 785.678 163.358 785.748 164.979L785.798 169.851L786.188 174.705L786.288 175.922L786.478 177.131L786.848 179.539L787.218 181.947C787.368 182.744 787.578 183.531 787.758 184.327C788.148 185.911 788.458 187.513 788.918 189.077L790.398 193.753C792.608 199.909 795.258 205.98 798.798 211.62C800.408 214.525 802.428 217.214 804.338 219.959C805.248 221.355 806.388 222.62 807.438 223.941L810.628 227.858L810.698 227.942C811.198 228.551 811.148 229.376 810.628 229.938C809.828 230.8 809.048 231.54 808.178 232.29C807.318 233.03 806.408 233.723 805.378 234.36C804.348 234.979 803.218 235.578 801.728 235.831C800.988 235.953 800.118 235.953 799.268 235.682C798.418 235.41 797.698 234.885 797.198 234.313L799.768 232.393C805.978 239.504 812.958 246.213 820.318 252.425C827.708 258.627 835.578 264.362 844.058 269.206C848.308 271.623 852.728 273.759 857.298 275.596C861.858 277.451 866.628 278.875 871.508 279.803C876.378 280.712 881.388 281.208 886.378 280.861C891.358 280.552 896.288 279.54 900.998 277.9C896.368 279.699 891.448 280.899 886.418 281.386C881.388 281.939 876.288 281.545 871.308 280.758C866.328 279.943 861.428 278.622 856.738 276.861C852.038 275.118 847.478 273.057 843.088 270.724C834.328 266.02 826.128 260.454 818.528 254.28C810.908 248.105 803.758 241.519 797.178 234.295C796.588 233.648 796.678 232.693 797.378 232.149C798.038 231.634 799.018 231.681 799.618 232.252L799.748 232.384C800.178 232.796 800.428 232.87 801.138 232.767C801.818 232.646 802.668 232.243 803.458 231.737C804.258 231.231 805.038 230.612 805.788 229.957C806.528 229.301 807.268 228.57 807.898 227.877V229.947L804.558 225.965C803.458 224.625 802.278 223.342 801.308 221.917C799.298 219.116 797.168 216.371 795.458 213.391C791.708 207.601 788.838 201.342 786.438 194.961L784.828 190.108C784.338 188.478 783.998 186.81 783.568 185.161C783.378 184.336 783.148 183.512 782.978 182.678L782.558 180.167L782.148 177.656L781.938 176.4L781.818 175.136L781.368 170.066L781.268 164.988C781.188 163.292 781.368 161.606 781.418 159.91L781.548 157.371L781.838 154.851C783.228 141.358 787.558 128.259 793.608 116.023C796.638 109.895 800.128 103.974 803.978 98.2677C805.938 95.4381 807.938 92.6177 810.088 89.9005C812.248 87.1646 814.408 84.5226 816.898 81.8897C817.768 80.9715 819.258 80.8591 820.278 81.618L820.318 81.6459C829.128 88.2702 837.378 95.56 844.838 103.533C852.278 111.507 858.978 120.136 864.298 129.515C866.958 134.2 869.368 139.016 871.288 144.019C873.218 149.013 874.758 154.138 875.838 159.357C876.908 164.576 877.548 169.879 877.598 175.211C877.648 177.871 877.528 180.542 877.258 183.212C877.128 184.543 876.948 185.873 876.728 187.203C876.488 188.553 876.238 189.817 875.828 191.27L871.668 190.136C872.398 188.178 873.088 186.201 873.858 184.252L875.138 181.375C875.568 180.42 875.978 179.446 876.498 178.527C877.488 176.663 878.448 174.779 879.628 172.999C880.708 171.172 881.988 169.448 883.238 167.715C885.868 164.323 888.798 161.118 892.128 158.261C892.968 157.558 893.798 156.837 894.698 156.19L896.028 155.197L897.408 154.27C897.858 153.951 898.338 153.661 898.828 153.37C899.308 153.08 899.778 152.78 900.288 152.517C901.298 151.964 902.248 151.468 903.448 150.981L903.478 150.971C904.088 150.728 904.778 150.84 905.258 151.206C907.768 153.145 909.768 155.188 911.698 157.408C913.608 159.61 915.348 161.943 916.858 164.398C919.948 169.261 922.168 174.554 923.678 179.989C926.688 190.895 926.328 202.345 923.798 213.176C921.138 223.998 916.628 234.341 910.908 243.992C905.188 253.661 898.388 262.722 891.028 271.323Z" fill="#055661"/>
<path d="M915.129 296.902C914.099 296.331 913.309 295.853 912.429 295.338L909.909 293.801C908.239 292.77 906.599 291.721 904.979 290.662C901.729 288.554 898.549 286.362 895.409 284.15C889.139 279.7 883.069 275.052 877.199 270.208C865.439 260.539 854.539 249.979 844.759 238.624C839.919 232.908 835.379 226.977 831.209 220.84C827.079 214.675 823.409 208.276 820.169 201.708C816.989 195.111 814.429 188.29 812.389 181.376C810.439 174.423 809.249 167.349 808.629 160.266C810.089 167.246 812.079 174.086 814.779 180.664C817.569 187.213 820.819 193.556 824.629 199.59C828.489 205.606 832.729 211.377 837.369 216.858C842.049 222.321 847.029 227.53 852.279 232.496C862.859 242.362 874.379 251.338 886.589 259.368C892.689 263.387 898.939 267.201 905.319 270.789C908.519 272.56 911.729 274.312 914.979 275.961C916.599 276.786 918.229 277.601 919.849 278.388L922.279 279.54C923.059 279.896 923.939 280.309 924.589 280.581C929.629 282.689 931.869 288.189 929.589 292.845C927.309 297.511 921.369 299.582 916.329 297.465C915.979 297.315 915.639 297.155 915.309 296.968L915.129 296.902Z" fill="#055661"/>
<path d="M825.869 740.99V608.271C825.869 608.271 838.789 598.208 840.639 586.037C842.489 573.866 826.349 564.355 826.349 564.355V412.363L731.929 417.488V561.648C731.929 561.648 715.049 568.965 715.049 583.6C715.049 598.236 731.929 605.563 731.929 605.563V744.663L825.869 740.99Z" fill="white"/>
<path d="M734.579 573.838C741.309 574.785 747.929 575.694 754.559 576.415C761.179 577.155 767.789 577.689 774.389 577.942C777.689 578.055 780.989 578.102 784.279 578.036C787.569 577.961 790.859 577.792 794.139 577.502C797.409 577.174 800.689 576.78 803.939 576.162C807.199 575.562 810.409 574.738 813.689 573.838C810.909 575.665 807.829 577.099 804.649 578.345C801.439 579.498 798.129 580.425 794.749 581.1C791.369 581.756 787.939 582.168 784.509 582.421C781.069 582.646 777.629 582.674 774.199 582.561C767.339 582.299 760.529 581.418 753.879 579.985C747.239 578.514 740.699 576.631 734.579 573.838Z" fill="#055661"/>
<path d="M752.509 591.893C759.539 592.071 766.469 592.296 773.379 592.287C780.279 592.305 787.129 592.1 793.879 591.453C800.579 590.713 807.299 589.626 813.259 587.059C816.219 585.775 819.019 584.145 821.269 581.915C823.579 579.732 825.229 576.94 826.359 573.848C826.329 577.108 825.219 580.444 823.199 583.32C821.149 586.178 818.279 588.52 815.119 590.272C811.949 592.034 808.519 593.308 805.029 594.198C801.539 595.098 797.979 595.679 794.429 596.063C787.309 596.747 780.189 596.625 773.169 595.922C766.149 595.163 759.199 593.964 752.509 591.893Z" fill="#055661"/>
<path d="M727.718 586.037C727.778 586.88 728.048 587.677 728.408 588.417C728.768 589.157 729.198 589.851 729.738 590.478C730.788 591.734 732.068 592.802 733.498 593.673C734.918 594.563 736.408 595.341 738.018 595.95C739.598 596.597 741.238 597.122 742.898 597.599C749.578 599.464 756.618 600.344 763.688 601.01C770.768 601.647 777.928 601.975 785.118 602.228C792.308 602.5 799.538 602.631 806.838 603.118C799.698 604.57 792.458 605.404 785.168 605.872C777.888 606.294 770.538 606.285 763.208 605.619C755.898 604.926 748.518 603.68 741.558 601.01C738.098 599.642 734.738 597.88 731.948 595.416C730.588 594.17 729.358 592.755 728.558 591.134C727.758 589.523 727.318 587.705 727.718 586.037Z" fill="#055661"/>
<path d="M731.938 1106.18C731.438 1064.46 731.198 1022.74 730.828 981.02L730.158 855.861L729.848 793.282L729.678 730.703L729.478 605.545L730.888 607.597C729.528 606.978 728.428 606.369 727.278 605.667C726.138 604.983 725.048 604.243 723.988 603.456C721.878 601.872 719.918 600.083 718.208 598.068C716.478 596.072 715.118 593.748 714.098 591.312L713.428 589.438C713.258 588.801 713.138 588.155 712.988 587.509L712.788 586.543L712.708 585.56L712.568 583.592L712.698 581.624L712.768 580.641L712.968 579.675C713.108 579.029 713.228 578.382 713.408 577.745L714.078 575.871C715.088 573.435 716.448 571.112 718.178 569.107C719.888 567.092 721.838 565.293 723.958 563.71C725.018 562.923 726.108 562.173 727.248 561.489C728.398 560.787 729.508 560.177 730.858 559.55L729.418 561.639L729.558 421.236C729.708 374.435 729.718 327.635 729.998 280.834L730.698 140.431L731.258 70.2249L731.538 35.1266L731.918 0.0283203L732.298 35.1266L732.578 70.2249L733.138 140.431L733.838 280.834C734.118 327.635 734.138 374.435 734.288 421.236L734.418 561.639C734.418 562.548 733.858 563.325 733.038 563.71L732.978 563.738C732.048 564.16 730.948 564.75 729.978 565.359C728.978 565.958 728.008 566.614 727.088 567.308C725.238 568.694 723.548 570.25 722.108 571.936C720.638 573.623 719.558 575.515 718.738 577.464L718.198 578.954C718.068 579.46 717.978 579.975 717.858 580.491L717.688 581.259L717.638 582.046L717.518 583.611L717.638 585.175L717.688 585.962L717.858 586.731C717.978 587.237 718.058 587.761 718.198 588.267L718.738 589.757C719.558 591.715 720.638 593.608 722.098 595.294C723.538 596.99 725.218 598.555 727.078 599.942C728.008 600.635 728.968 601.291 729.968 601.9C730.938 602.5 732.048 603.099 732.968 603.521L733.028 603.549C733.888 603.942 734.378 604.748 734.378 605.573L734.178 730.731L734.008 793.311L733.698 855.89L733.028 981.048C732.678 1022.74 732.438 1064.47 731.938 1106.18Z" fill="#055661"/>
<path d="M734.578 573.838C741.308 574.784 747.928 575.693 754.558 576.415C761.178 577.155 767.788 577.689 774.388 577.942C777.688 578.054 780.988 578.101 784.278 578.035C787.568 577.96 790.858 577.792 794.138 577.502C797.408 577.174 800.688 576.78 803.938 576.162C807.198 575.562 810.408 574.737 813.688 573.838C810.908 575.665 807.828 577.099 804.648 578.345C801.438 579.497 798.128 580.425 794.748 581.099C791.368 581.755 787.938 582.168 784.508 582.421C781.068 582.645 777.628 582.673 774.198 582.561C767.338 582.299 760.528 581.418 753.878 579.984C747.238 578.513 740.698 576.63 734.578 573.838Z" fill="#055661"/>
<path d="M752.508 591.893C759.538 592.071 766.468 592.296 773.378 592.287C780.278 592.305 787.128 592.1 793.878 591.453C800.578 590.713 807.298 589.626 813.258 587.059C816.218 585.775 819.018 584.145 821.268 581.915C823.578 579.732 825.228 576.94 826.358 573.848C826.328 577.108 825.218 580.444 823.198 583.32C821.148 586.178 818.278 588.52 815.118 590.272C811.948 592.034 808.518 593.308 805.028 594.198C801.538 595.098 797.978 595.679 794.428 596.063C787.308 596.747 780.188 596.625 773.168 595.922C766.148 595.163 759.198 593.964 752.508 591.893Z" fill="#055661"/>
<path d="M727.718 586.037C727.778 586.88 728.048 587.676 728.408 588.417C728.768 589.157 729.198 589.85 729.738 590.478C730.788 591.734 732.068 592.801 733.498 593.673C734.918 594.563 736.408 595.341 738.018 595.95C739.598 596.596 741.238 597.121 742.898 597.599C749.578 599.463 756.618 600.344 763.688 601.009C770.768 601.646 777.928 601.974 785.118 602.227C792.308 602.499 799.538 602.63 806.838 603.117C799.698 604.57 792.458 605.403 785.168 605.872C777.888 606.294 770.538 606.284 763.208 605.619C755.898 604.926 748.518 603.679 741.558 601.009C738.098 599.641 734.738 597.88 731.948 595.416C730.588 594.17 729.358 592.755 728.558 591.134C727.758 589.522 727.318 587.704 727.718 586.037Z" fill="#055661"/>
<path d="M823.858 89.4327L826.358 0.00976562L828.858 89.4327C828.898 90.7069 827.808 91.7753 826.418 91.8034C825.038 91.8409 823.888 90.8286 823.858 89.5544C823.858 89.5169 823.858 89.4702 823.858 89.4327Z" fill="#055661"/>
<path d="M825.869 1106.18L825.449 1075.06L825.119 1043.95C824.929 1023.2 824.629 1002.46 824.529 981.704L823.749 857.22L823.429 732.746L823.379 670.504L823.449 608.262C823.449 607.587 823.769 606.987 824.269 606.575L824.309 606.547C825.939 605.236 827.599 603.643 829.099 602.059C830.609 600.457 831.999 598.761 833.259 597.009C834.509 595.247 835.569 593.402 836.469 591.519C837.339 589.616 837.919 587.658 838.269 585.69C838.859 581.98 837.319 578.111 834.769 574.775C833.509 573.098 831.989 571.543 830.349 570.081C828.729 568.648 826.879 567.252 825.109 566.155L825.059 566.118C824.399 565.706 824.049 565.031 824.039 564.347L824.339 487.957L824.829 411.567L825.079 373.367L825.459 335.168C825.729 309.701 825.959 284.244 826.359 258.778C826.759 284.244 826.989 309.701 827.259 335.168L827.639 373.367L827.889 411.567L828.379 487.957L828.679 564.347L827.609 562.538C829.829 563.897 831.709 565.331 833.579 566.942C835.409 568.554 837.139 570.296 838.629 572.255C840.129 574.204 841.409 576.368 842.249 578.748C842.659 579.938 842.949 581.184 843.099 582.449C843.219 583.723 843.199 585.016 843.029 586.29C842.609 588.708 841.909 591.041 840.909 593.242C839.889 595.425 838.689 597.506 837.299 599.455C835.909 601.404 834.389 603.249 832.749 604.992C831.089 606.753 829.419 608.365 827.429 609.977L828.289 608.262L828.359 670.504L828.309 732.746L827.989 857.22L827.209 981.704C827.109 1002.45 826.809 1023.2 826.619 1043.95L826.289 1075.06L825.869 1106.18Z" fill="#055661"/>
</g>
<defs>
<clipPath id="clip0">
<rect width="1513" height="1105" fill="white"/>
</clipPath>
</defs>
</svg>
