<svg width="1513" height="361" viewBox="0 0 1513 361" fill="none" xmlns="http://www.w3.org/2000/svg">
<g clip-path="url(#clip0)">
<rect width="1513" height="361" fill="white"/>
<path d="M826.701 361.481C830.221 357.236 833.661 353.029 836.601 348.635C838.061 346.443 839.381 344.194 840.421 341.927C840.931 340.793 841.351 339.64 841.601 338.516C841.891 337.382 842.021 336.314 841.941 335.246C841.861 334.169 841.591 333.035 841.211 331.901C840.851 330.758 840.381 329.606 839.841 328.472C839.311 327.329 838.691 326.204 838.031 325.089C837.381 323.975 836.721 322.85 835.991 321.745C833.081 317.369 829.891 313.003 826.491 308.824L826.401 308.712C826.241 308.515 826.171 308.281 826.181 308.046L836.861 58.7788L828.501 308.121L828.191 307.344C829.311 308.243 830.321 309.189 831.351 310.145C832.381 311.091 833.381 312.075 834.331 313.096C835.301 314.108 836.241 315.139 837.161 316.188C838.061 317.257 838.931 318.343 839.781 319.458C841.491 321.679 843.021 324.04 844.301 326.589C845.591 329.118 846.651 331.882 846.811 335.021C846.891 336.605 846.631 338.179 846.221 339.612C845.781 341.055 845.161 342.386 844.471 343.651C843.121 346.208 841.371 348.457 839.521 350.575C835.791 354.772 831.501 358.454 826.701 361.481Z" fill="#055661"/>
<path d="M737.6 131.721C738.36 146.675 738.84 161.638 739.2 176.601C739.4 184.078 739.5 191.555 739.66 199.041L739.94 221.481C740.04 228.958 740.02 236.435 740.06 243.921L740.1 255.136L740.06 266.352C740.04 281.306 739.87 296.269 739.63 311.232V311.251C739.62 311.972 739.16 312.6 738.51 312.909C736.1 314.033 733.63 315.495 731.37 317.05C729.09 318.625 726.95 320.358 725.02 322.269C721.14 326.045 718.1 330.627 717.04 335.715C716.75 336.979 716.62 338.272 716.61 339.575L716.58 340.549C716.56 340.877 716.56 341.205 716.61 341.524L716.82 343.463C717.27 346.03 718.2 348.532 719.6 350.837C721.02 353.133 722.92 355.184 725.08 356.974C727.24 358.773 729.67 360.319 732.32 361.5C726.83 359.569 721.8 356.196 718.35 351.558C716.66 349.225 715.49 346.574 714.8 343.81L714.43 341.711C714.35 341.364 714.33 341.008 714.32 340.652L714.28 339.594C714.2 338.179 714.23 336.745 714.49 335.33C715.37 329.634 718.47 324.415 722.45 320.161C724.46 318.025 726.68 316.095 729.05 314.333C731.45 312.572 733.88 310.998 736.67 309.573L735.55 311.251C735.32 296.297 735.15 281.334 735.12 266.371L735.08 255.155L735.12 243.94C735.16 236.463 735.14 228.977 735.24 221.5L735.52 199.06C735.68 191.583 735.77 184.106 735.98 176.62C736.37 161.638 736.84 146.675 737.6 131.721Z" fill="#055661"/>
<path d="M793.421 123.504C788.491 127.392 783.251 130.943 777.741 134.063C772.221 137.155 766.361 139.797 760.201 141.353C758.661 141.727 757.111 142.055 755.541 142.224C754.761 142.346 753.981 142.355 753.201 142.43C752.421 142.421 751.641 142.477 750.871 142.402C747.791 142.28 744.821 141.324 742.721 139.497C740.661 137.623 739.561 134.991 739.301 132.217C738.961 129.453 739.391 126.567 740.011 123.757C741.321 118.107 743.871 112.682 746.781 107.472C749.701 102.253 753.171 97.2876 756.891 92.4997C760.601 87.7025 764.671 83.1302 768.961 78.764C773.241 74.379 777.761 70.1908 782.561 66.3118C787.341 62.4141 792.351 58.7412 797.681 55.5462C802.991 52.3512 808.591 49.4841 814.541 47.7226C817.501 46.87 820.561 46.2048 823.571 46.2423C826.581 46.2142 829.521 46.9731 831.741 48.6877C833.921 50.4398 835.231 53.082 835.661 55.9116C835.811 56.6144 835.831 57.3358 835.911 58.0572C835.911 58.7787 835.971 59.5095 835.911 60.2404C835.871 61.702 835.681 63.1637 835.421 64.6159C834.341 70.4344 832.071 76.0936 829.271 81.4718C826.451 86.8499 823.141 92.0219 819.431 96.9315C815.711 101.841 811.641 106.517 807.321 110.986C802.971 115.408 798.331 119.606 793.421 123.504ZM819.621 97.044C823.401 92.1718 826.931 87.1122 829.921 81.7716C832.901 76.431 835.531 70.8561 836.911 64.8877C837.561 61.9081 838.021 58.8256 837.641 55.6961C837.341 52.5948 836.041 49.3436 833.421 47.0012C830.761 44.6963 827.111 43.6188 823.681 43.497C822.811 43.422 821.951 43.4782 821.091 43.4782C820.241 43.5532 819.371 43.5719 818.541 43.7125C817.691 43.8155 816.861 43.9374 816.031 44.106C815.191 44.2465 814.381 44.4527 813.571 44.6494C807.071 46.3078 801.061 49.0437 795.411 52.2013C789.771 55.3963 784.441 59.013 779.421 62.9669C774.421 66.9302 769.721 71.2027 765.261 75.672C756.491 84.723 748.681 94.6641 742.921 105.701C741.471 108.456 740.191 111.286 739.101 114.19C738.011 117.095 737.111 120.084 736.551 123.157C736.281 124.693 736.061 126.249 736.021 127.823C735.961 128.61 736.021 129.406 736.021 130.193C736.101 130.99 736.131 131.786 736.291 132.583C736.761 135.74 738.271 139.001 741.011 141.221C743.791 143.404 747.411 144.285 750.781 144.257C754.191 144.304 757.461 143.582 760.601 142.683C766.891 140.828 772.641 137.867 778.091 134.597C783.551 131.327 788.651 127.579 793.521 123.625C798.401 119.671 803.001 115.427 807.341 110.976C811.731 106.563 815.851 101.916 819.621 97.044Z" fill="#055661"/>
<path d="M776.621 116.795C773.321 119.231 769.861 121.499 766.251 123.457C764.441 124.422 762.581 125.303 760.671 125.93C759.721 126.239 758.751 126.492 757.851 126.567C756.931 126.661 756.161 126.464 755.831 126.146C755.521 125.808 755.341 125.162 755.431 124.337C755.501 123.532 755.761 122.66 756.071 121.798C756.691 120.074 757.621 118.369 758.591 116.701C760.551 113.356 762.921 110.171 765.341 107.041C767.771 103.902 770.381 100.876 773.041 97.8966C775.701 94.9077 778.451 91.9844 781.261 89.1173C784.071 86.2503 786.951 83.43 789.901 80.6941C792.851 77.9488 795.851 75.2504 798.991 72.7113C802.121 70.1627 805.321 67.6892 808.731 65.5529C810.431 64.4941 812.171 63.4729 813.971 62.7327C814.861 62.3579 815.781 62.0393 816.641 61.8988C817.521 61.7301 818.241 61.8332 818.641 62.0862C819.011 62.3673 819.311 63.0512 819.291 63.9132C819.301 64.7565 819.121 65.6747 818.881 66.5742C818.401 68.3919 817.631 70.2002 816.761 71.9523C815.001 75.4659 812.901 78.8671 810.601 82.1464C805.981 88.6957 800.721 94.8796 795.041 100.679C789.361 106.47 783.221 111.904 776.621 116.795ZM803.371 91.7783C806.071 88.7519 808.711 85.6881 811.181 82.4931C813.651 79.2981 816.061 76.0468 818.111 72.5613C819.121 70.8092 820.101 69.029 820.801 67.0801C821.151 66.1057 821.451 65.0938 821.541 63.9788C821.551 63.6977 821.551 63.4073 821.551 63.1168C821.501 62.8077 821.501 62.5172 821.401 62.1986C821.251 61.5709 820.891 60.915 820.321 60.3715C819.721 59.875 818.971 59.547 818.271 59.4346C817.921 59.3596 817.591 59.3597 817.251 59.3315C816.931 59.3409 816.611 59.3503 816.291 59.369C815.051 59.4815 813.941 59.8 812.871 60.1467C810.731 60.8588 808.781 61.7957 806.891 62.8076C803.131 64.8596 799.611 67.1738 796.251 69.6568C789.541 74.632 783.331 80.1319 777.571 85.9973C771.821 91.872 766.491 98.1121 761.791 104.774C759.441 108.109 757.301 111.586 755.451 115.24C754.541 117.076 753.721 118.969 753.171 121.011C752.901 122.033 752.671 123.082 752.671 124.234C752.681 124.525 752.701 124.825 752.721 125.125C752.791 125.443 752.821 125.734 752.931 126.061C753.121 126.699 753.541 127.354 754.141 127.86C754.771 128.329 755.531 128.61 756.211 128.685C756.561 128.741 756.881 128.722 757.211 128.732C757.521 128.704 757.831 128.676 758.141 128.638C759.341 128.451 760.391 128.067 761.411 127.654C763.441 126.82 765.271 125.752 767.051 124.647C770.611 122.426 773.871 119.887 777.061 117.301C780.261 114.715 783.301 111.979 786.291 109.206C789.281 106.432 792.191 103.584 795.041 100.679C797.901 97.7654 800.681 94.8047 803.371 91.7783Z" fill="#055661"/>
<path d="M736.29 322.935C737.2 324.125 738.4 324.968 739.67 325.68C740.96 326.383 742.28 327.01 743.69 327.488C746.46 328.519 749.35 329.287 752.26 329.943C758.09 331.255 764.07 332.07 770.07 332.679C776.08 333.288 782.13 333.644 788.23 333.869C794.33 334.131 800.46 334.15 806.71 334.384C800.73 336.061 794.55 337.045 788.32 337.504C782.09 337.963 775.79 337.916 769.54 337.27C763.29 336.633 757.07 335.452 751.11 333.391C748.14 332.342 745.23 331.114 742.55 329.465C741.22 328.641 739.93 327.722 738.81 326.645C737.69 325.605 736.69 324.349 736.29 322.935Z" fill="#055661"/>
<path d="M731.01 333.419C731.69 334.721 732.84 335.677 733.95 336.586C734.57 336.998 735.08 337.485 735.73 337.841C736.36 338.216 736.96 338.619 737.61 338.956L739.56 339.949C740.2 340.287 740.91 340.53 741.58 340.83C742.9 341.439 744.33 341.87 745.7 342.376C751.29 344.241 757.17 345.356 763.1 346.227C769.03 347.155 775.08 347.548 781.15 348.073C784.19 348.232 787.25 348.41 790.32 348.654C793.39 348.804 796.47 348.944 799.59 349.291C796.56 349.966 793.49 350.434 790.41 350.921C787.32 351.268 784.21 351.521 781.1 351.708C774.86 351.868 768.56 351.774 762.33 350.799C756.11 349.881 749.89 348.373 744.15 345.712C742.73 345.009 741.3 344.363 739.98 343.482C739.32 343.051 738.63 342.685 738.01 342.208L736.15 340.783C734.99 339.743 733.85 338.685 732.93 337.457C732.68 337.176 732.49 336.829 732.28 336.511C732.08 336.183 731.86 335.883 731.7 335.546L731.26 334.506C731.13 334.15 731.08 333.766 731.01 333.419Z" fill="#055661"/>
<path d="M788.24 355.868C792.25 354.659 796.18 353.676 800.05 352.636C803.92 351.614 807.73 350.546 811.4 349.3C815.03 348.016 818.6 346.611 821.53 344.54C823 343.51 824.3 342.32 825.29 340.858C826.3 339.406 826.93 337.672 827.27 335.733C828.01 337.56 828.14 339.696 827.55 341.729C826.97 343.772 825.72 345.646 824.2 347.192C821.11 350.312 817.11 352.223 813.13 353.629C809.1 354.987 804.95 355.802 800.78 356.187C796.61 356.561 792.4 356.571 788.24 355.868Z" fill="#055661"/>
<path d="M885.4 365.969C874.72 347.726 864.19 329.427 853.32 311.466C842.42 293.533 831.22 275.862 818.18 259.784C811.65 251.754 804.62 244.165 796.96 237.156C789.31 230.138 781.03 223.702 772.25 217.789C754.66 205.974 735.24 196.136 715.36 187.057C695.44 177.987 675 169.677 654.45 161.572C644.17 157.524 633.84 153.542 623.5 149.588L615.7 146.599C613.03 145.578 610.39 144.473 607.77 143.348C602.54 141.062 597.44 138.532 592.48 135.806C572.59 124.909 555.11 110.517 540.65 94.0551C533.43 85.8005 526.94 77.04 521.18 67.8953C515.44 58.7412 510.45 49.2124 506.17 39.4306C489.13 0.237812 483.73 -42.8715 489.52 -84.491C492.46 -105.301 498.23 -125.764 506.81 -145.168C515.4 -164.563 526.8 -182.871 540.68 -199.39C554.54 -215.918 570.88 -230.618 588.95 -243.099C607.03 -255.57 626.78 -265.895 647.5 -273.99C657.84 -278.075 668.44 -281.579 679.18 -284.634C689.91 -287.698 700.81 -290.237 711.8 -292.336C733.78 -296.543 756.12 -298.979 778.5 -300C756.14 -298.641 733.88 -295.859 712.04 -291.333C701.12 -289.075 690.31 -286.377 679.68 -283.172C669.05 -279.968 658.58 -276.333 648.39 -272.116C627.97 -263.768 608.6 -253.246 590.97 -240.653C573.35 -228.07 557.53 -213.341 544.21 -196.907C530.87 -180.482 520.03 -162.361 511.96 -143.266C503.9 -124.162 498.63 -104.092 496.12 -83.7508C491.18 -43.087 497.25 -1.24258 514.36 36.2918C518.66 45.6614 523.62 54.7592 529.28 63.4541C534.96 72.1397 541.32 80.4224 548.34 88.1804C562.4 103.659 579.19 116.992 598.06 126.952C602.77 129.444 607.6 131.749 612.54 133.819C615.02 134.841 617.5 135.834 620.03 136.752C622.54 137.689 625.23 138.626 627.83 139.554C638.3 143.301 648.75 147.077 659.19 150.938C680.05 158.658 700.86 166.603 721.39 175.42C741.88 184.265 762.2 193.963 781.21 206.134C790.7 212.214 799.79 218.97 808.24 226.372C816.7 233.764 824.48 241.803 831.63 250.189C845.92 267.008 857.86 284.988 869.36 302.93C880.82 320.92 891.8 338.994 902.9 356.983C905.64 361.425 903.97 367.074 899.17 369.604C894.37 372.134 888.27 370.597 885.53 366.156C885.5 366.109 885.47 366.062 885.44 366.016L885.4 365.969Z" fill="#055661"/>
<path d="M658 152.558C652.62 148.951 647.42 145.119 642.51 140.912C640.06 138.804 637.71 136.574 635.54 134.138C633.38 131.702 631.41 128.975 630.21 125.771C629.61 124.178 629.28 122.463 629.18 120.786C629.08 119.1 629.21 117.469 629.39 115.914C629.76 112.813 630.1 109.946 629.94 107.051C629.66 101.288 627.92 95.5635 625.48 90.0448V90.0354C624.96 88.8642 625.57 87.5338 626.83 87.0559C627.56 86.7748 628.37 86.8592 629 87.1965C630.63 88.0678 632.02 88.9205 633.44 89.8855C634.84 90.8318 636.2 91.825 637.52 92.8463C640.17 94.8982 642.67 97.1188 645.01 99.4706C649.62 104.23 653.59 109.59 656.38 115.464C657.77 118.397 658.89 121.442 659.69 124.553C660.45 127.673 660.91 130.84 661.05 134.016C661.25 140.369 660.19 146.674 658 152.558C659.07 146.421 659.4 140.238 658.51 134.213C658.1 131.205 657.39 128.244 656.41 125.377C655.44 122.51 654.23 119.718 652.74 117.057C651.26 114.396 649.57 111.829 647.69 109.393C645.81 106.957 643.7 104.671 641.47 102.488C639.25 100.304 636.87 98.2432 634.36 96.3412C633.11 95.3855 631.82 94.4766 630.5 93.6052C629.2 92.762 627.81 91.8719 626.55 91.1785L630.07 88.3302C631.31 91.2629 632.4 94.2611 633.22 97.3718C634.04 100.473 634.56 103.696 634.57 106.938C634.63 110.18 634.12 113.412 633.66 116.383C633.45 117.872 633.26 119.297 633.25 120.674C633.25 122.051 633.42 123.4 633.83 124.722C634.63 127.382 636.25 129.922 638.06 132.367C639.9 134.803 642.02 137.117 644.2 139.385C648.56 143.929 653.3 148.22 658 152.558Z" fill="#055661"/>
</g>
<defs>
<clipPath id="clip0">
<rect width="1513" height="361" fill="white"/>
</clipPath>
</defs>
</svg>
